<svg width="40" height="40" viewBox="0 0 40 40" fill="none" xmlns="http://www.w3.org/2000/svg">
<g id="close">
<mask id="mask0_140_9100" style="mask-type:alpha" maskUnits="userSpaceOnUse" x="0" y="0" width="40" height="40">
<rect id="Bounding box" width="40" height="40" fill="#D9D9D9"/>
</mask>
<g mask="url(#mask0_140_9100)">
<path id="close_2" d="M20.0001 22.3337L11.8334 30.5003C11.5279 30.8059 11.139 30.9587 10.6667 30.9587C10.1945 30.9587 9.80564 30.8059 9.50008 30.5003C9.19453 30.1948 9.04175 29.8059 9.04175 29.3337C9.04175 28.8614 9.19453 28.4725 9.50008 28.167L17.6667 20.0003L9.50008 11.8337C9.19453 11.5281 9.04175 11.1392 9.04175 10.667C9.04175 10.1948 9.19453 9.80588 9.50008 9.50033C9.80564 9.19477 10.1945 9.04199 10.6667 9.04199C11.139 9.04199 11.5279 9.19477 11.8334 9.50033L20.0001 17.667L28.1667 9.50033C28.4723 9.19477 28.8612 9.04199 29.3334 9.04199C29.8056 9.04199 30.1945 9.19477 30.5001 9.50033C30.8056 9.80588 30.9584 10.1948 30.9584 10.667C30.9584 11.1392 30.8056 11.5281 30.5001 11.8337L22.3334 20.0003L30.5001 28.167C30.8056 28.4725 30.9584 28.8614 30.9584 29.3337C30.9584 29.8059 30.8056 30.1948 30.5001 30.5003C30.1945 30.8059 29.8056 30.9587 29.3334 30.9587C28.8612 30.9587 28.4723 30.8059 28.1667 30.5003L20.0001 22.3337Z" fill="#1C1B1F"/>
</g>
</g>
</svg>
