<svg width="40" height="40" viewBox="0 0 40 40" fill="none" xmlns="http://www.w3.org/2000/svg">
<g id="dehaze">
<mask id="mask0_140_7744" style="mask-type:alpha" maskUnits="userSpaceOnUse" x="0" y="0" width="40" height="40">
<rect id="Bounding box" width="40" height="40" fill="#D9D9D9"/>
</mask>
<g mask="url(#mask0_140_7744)">
<path id="dehaze_2" d="M6.66667 11.6693C6.19444 11.6693 5.79861 11.5095 5.47917 11.1901C5.15972 10.8707 5 10.4748 5 10.0026C5 9.53038 5.15972 9.13455 5.47917 8.8151C5.79861 8.49566 6.19444 8.33594 6.66667 8.33594H33.3333C33.8056 8.33594 34.2014 8.49566 34.5208 8.8151C34.8403 9.13455 35 9.53038 35 10.0026C35 10.4748 34.8403 10.8707 34.5208 11.1901C34.2014 11.5095 33.8056 11.6693 33.3333 11.6693H6.66667ZM6.66667 31.6693C6.19444 31.6693 5.79861 31.5096 5.47917 31.1901C5.15972 30.8707 5 30.4748 5 30.0026C5 29.5304 5.15972 29.1346 5.47917 28.8151C5.79861 28.4957 6.19444 28.3359 6.66667 28.3359H33.3333C33.8056 28.3359 34.2014 28.4957 34.5208 28.8151C34.8403 29.1346 35 29.5304 35 30.0026C35 30.4748 34.8403 30.8707 34.5208 31.1901C34.2014 31.5096 33.8056 31.6693 33.3333 31.6693H6.66667ZM6.66667 21.6693C6.19444 21.6693 5.79861 21.5096 5.47917 21.1901C5.15972 20.8707 5 20.4748 5 20.0026C5 19.5304 5.15972 19.1346 5.47917 18.8151C5.79861 18.4957 6.19444 18.3359 6.66667 18.3359H33.3333C33.8056 18.3359 34.2014 18.4957 34.5208 18.8151C34.8403 19.1346 35 19.5304 35 20.0026C35 20.4748 34.8403 20.8707 34.5208 21.1901C34.2014 21.5096 33.8056 21.6693 33.3333 21.6693H6.66667Z" fill="#1C1B1F"/>
</g>
</g>
</svg>
