<?xml version="1.0" encoding="UTF-8"?>
<svg version="1.1" xmlns="http://www.w3.org/2000/svg" width="1024" height="1024">
<path d="M0 0 C337.92 0 675.84 0 1024 0 C1024 337.92 1024 675.84 1024 1024 C686.08 1024 348.16 1024 0 1024 C0 686.08 0 348.16 0 0 Z " fill="#000000" transform="translate(0,0)"/>
<path d="M0 0 C3 1 3 1 4.16796875 2.77734375 C4.50441406 3.49019531 4.84085938 4.20304688 5.1875 4.9375 C5.53167969 5.64777344 5.87585938 6.35804688 6.23046875 7.08984375 C7 9 7 9 7 11 C7.66 11 8.32 11 9 11 C10.23030726 12.5988191 11.38640163 14.25530585 12.5 15.9375 C14.70978178 19.56770686 14.70978178 19.56770686 18 22 C18.625 25.0625 18.625 25.0625 19 28 C19.58394531 28.08507812 20.16789062 28.17015625 20.76953125 28.2578125 C23.63296827 29.21061991 24.75202146 30.58265449 26.6875 32.875 C27.28949219 33.57367187 27.89148438 34.27234375 28.51171875 34.9921875 C30 37 30 37 31 40 C31.99 40.33 32.98 40.66 34 41 C34 41.66 34 42.32 34 43 C34.66 43 35.32 43 36 43 C38 46 38 46 38 49 C39.32 49.33 40.64 49.66 42 50 C42 50.66 42 51.32 42 52 C42.86431641 52.37511719 42.86431641 52.37511719 43.74609375 52.7578125 C46.3060146 54.16865276 48.01988477 55.78909235 50.0625 57.875 C50.73410156 58.55304687 51.40570313 59.23109375 52.09765625 59.9296875 C57 65.26488706 57 65.26488706 57 68 C57.87398437 68.14115234 57.87398437 68.14115234 58.765625 68.28515625 C61.49893336 69.15962379 62.75839814 70.39057587 64.75 72.4375 C65.36359375 73.05496094 65.9771875 73.67242188 66.609375 74.30859375 C68 76 68 76 68 78 C68.99 78 69.98 78 71 78 C71 78.66 71 79.32 71 80 C72.32 80 73.64 80 75 80 C75 80.66 75 81.32 75 82 C75.52980469 82.22945312 76.05960937 82.45890625 76.60546875 82.6953125 C80.37695819 84.75025128 83.61434451 87.51728138 86.95898438 90.19140625 C89.80194616 92.42684019 92.62168069 94.42350803 95.78125 96.19140625 C98.79844338 97.88674671 100.66168471 99.50042159 103 102 C105.40511271 104.07337303 107.41889396 105.1784178 110.375 106.4375 C113.31058755 107.70283946 115.58124227 109.0672755 118.19335938 110.84741211 C121.83869108 113.17303521 125.72261681 115.08167858 129.5625 117.0625 C138.44196015 121.66286696 138.44196015 121.66286696 141.83203125 123.7109375 C143.90557081 124.94385292 145.84901642 125.78152524 148.125 126.5625 C150.84082063 127.4977145 152.5410484 128.36069893 155 130 C155 130.66 155 131.32 155 132 C155.70125 131.95101562 156.4025 131.90203125 157.125 131.8515625 C160.53903454 132.02783059 162.87864083 132.99746139 166 134.375 C167.5159375 135.03628906 167.5159375 135.03628906 169.0625 135.7109375 C170.031875 136.13632812 171.00125 136.56171875 172 137 C175.08129303 138.29349632 178.06141054 139.35355504 181.3125 140.125 C183.1378125 140.558125 183.1378125 140.558125 185 141 C185 141.66 185 142.32 185 143 C185.8353125 143.05607422 185.8353125 143.05607422 186.6875 143.11328125 C191.48025367 143.5261705 195.3980838 144.41205669 199.828125 146.24609375 C203.23146141 147.42746772 206.73052028 147.87409083 210.2890625 148.375 C213 149 213 149 215.80078125 150.5 C219.77398786 152.36289541 223.23261972 152.66597672 227.5625 153 C232.98213261 153.49224737 238.05378844 154.15201011 243.3125 155.625 C249.21881336 157.09968771 254.9416211 157.36195783 261 157.4375 C261.90919189 157.4595752 262.81838379 157.48165039 263.75512695 157.50439453 C267.9899256 157.49097703 270.35532144 157.40167148 274.015625 155.12109375 C277.86267969 151.00898608 279.34913151 147.59746901 280 142 C280.99 142 281.98 142 283 142 C283 142.66 283 143.32 283 144 C283.804375 144.20625 284.60875 144.4125 285.4375 144.625 C290.05469793 146.40707639 294.16242583 148.86171712 298 152 C298 152.66 298 153.32 298 154 C298.70125 153.9175 299.4025 153.835 300.125 153.75 C303.97138418 154.08446819 306.00893216 155.63496961 309 158 C309 158.66 309 159.32 309 160 C309.66 160.04125 310.32 160.0825 311 160.125 C315.32665788 161.38694188 318.71836789 163.93008609 322 167 C322 167.66 322 168.32 322 169 C322.680625 169.0825 323.36125 169.165 324.0625 169.25 C328.37983824 170.35229913 332.37001501 172.30209897 335.5 175.5625 C337.39295019 177.37657726 339.4943102 178.14409734 341.8984375 179.12109375 C347.92813848 181.64280885 353.5875446 184.05804995 358 189 C358.99 189.33 359.98 189.66 361 190 C361 191.32 361 192.64 361 194 C358.98177083 194.390625 356.96354167 194.78125 354.9453125 195.171875 C352.37073476 196.26787998 352.17407564 197.52242307 351 200 C349.125 201.484375 349.125 201.484375 347 202.75 C346.29875 203.17796875 345.5975 203.6059375 344.875 204.046875 C343 205 343 205 341 205 C341 205.66 341 206.32 341 207 C339.68 207 338.36 207 337 207 C337 207.66 337 208.32 337 209 C335.783125 209.391875 334.56625 209.78375 333.3125 210.1875 C329.2397673 211.69591952 326.95720634 213.79635979 324 217 C322.68163705 217.69580267 321.35208914 218.37224433 320 219 C319.67 219.66 319.34 220.32 319 221 C317.36997738 221.67917609 315.73814171 222.35431316 314.09765625 223.0078125 C311.67610065 224.15320379 309.62345349 225.57892799 307.4375 227.125 C303.96474022 229.52738861 301.31295926 230.7788226 297 231 C297 231.66 297 232.32 297 233 C294.75849376 234.6404154 292.5321169 236.14662087 290.1875 237.625 C289.54490234 238.04523438 288.90230469 238.46546875 288.24023438 238.8984375 C283.38145546 242 283.38145546 242 280 242 C279.96261719 241.39671875 279.92523438 240.7934375 279.88671875 240.171875 C279.50675198 235.5526711 279.24820627 232.53065899 276 229 C276 228.34 276 227.68 276 227 C270.82763763 224.31803433 266.38997339 222.75222841 260.546875 222.21875 C259.29583984 222.10023682 258.04480469 221.98172363 256.75585938 221.85961914 C256.10125732 221.80097687 255.44665527 221.74233459 254.7722168 221.68191528 C252.73077924 221.49827093 250.69056791 221.30430232 248.65039062 221.10717773 C243.82047098 220.64112337 238.98957389 220.18562519 234.15820312 219.73486328 C224.39832739 218.80488318 215.36198414 216.95402412 206 214 C198.57152019 211.77606495 198.57152019 211.77606495 190.9375 210.5625 C186.72236508 209.96033787 183.41265437 208.69446695 179.515625 207.05078125 C174.65060568 205.01865362 169.88100753 203.20900084 164.625 202.625 C160.19049593 201.86043033 156.64465829 200.13781235 152.6015625 198.2109375 C149.79434453 196.90427448 146.96746733 195.88222002 144 195 C144 194.34 144 193.68 144 193 C143.1646875 192.96132813 143.1646875 192.96132813 142.3125 192.921875 C135.29230537 192.40010378 130.40364117 190.12727573 124.5 186.4375 C121.88702549 184.93503966 119.23401056 183.97185886 116.40234375 182.9609375 C111.44867806 180.97947122 106.73968683 178.44093872 102 176 C102 175.34 102 174.68 102 174 C101.4225 173.855625 100.845 173.71125 100.25 173.5625 C98.16666667 173.04166667 96.08333333 172.52083333 94 172 C94 171.34 94 170.68 94 170 C93.401875 169.87625 92.80375 169.7525 92.1875 169.625 C90 169 90 169 87 167 C87 166.34 87 165.68 87 165 C85.95779297 164.84724609 85.95779297 164.84724609 84.89453125 164.69140625 C81.50947448 163.88282994 78.77712981 162.53324287 75.6875 160.9375 C74.61886719 160.38964844 73.55023438 159.84179688 72.44921875 159.27734375 C71.64097656 158.85582031 70.83273437 158.43429687 70 158 C70 157.34 70 156.68 70 156 C68.68 155.67 67.36 155.34 66 155 C66 154.34 66 153.68 66 153 C64.576875 152.62875 64.576875 152.62875 63.125 152.25 C59.56440032 150.82576013 59.48257341 150.28284113 58 147 C56.67851173 146.62243192 55.34164079 146.2981424 54 146 C51.97386717 144.70672372 49.97485205 143.3703055 48 142 C47.113125 141.484375 46.22625 140.96875 45.3125 140.4375 C43.18441993 139.11463942 41.59194107 137.92708656 40 136 C40 135.34 40 134.68 40 134 C39.195625 133.731875 38.39125 133.46375 37.5625 133.1875 C36.716875 132.795625 35.87125 132.40375 35 132 C34.67 131.01 34.34 130.02 34 129 C32.67123672 128.64889171 31.33662564 128.31987622 30 128 C28.10049046 126.82004342 26.2489468 125.56114245 24.4375 124.25 C23.48746094 123.57453125 22.53742188 122.8990625 21.55859375 122.203125 C18.94038164 119.94866449 17.71404706 117.96020559 16 115 C13.87076468 112.84360104 13.87076468 112.84360104 11.4375 110.8125 C6.86263614 106.81116135 2.57916972 102.60681713 -1.68359375 98.27734375 C-3.64018847 96.35374388 -5.62173489 94.60099961 -7.75 92.875 C-10.95202113 90.22297309 -13.25593849 87.19616901 -15.64453125 83.80859375 C-17.02999526 81.82747604 -17.02999526 81.82747604 -19.375 79.9375 C-21.28258165 77.66307573 -21.56204794 76.11686287 -21.3984375 73.171875 C-20.69843317 69.35616514 -19.30933147 65.76989262 -18.015625 62.12109375 C-16.50871133 57.49023213 -15.77895216 52.79632583 -15 48 C-14.21038744 43.43048286 -13.43348792 39.43022277 -11 35.4375 C-9.18884431 32.32457616 -8.31835016 29.77465693 -7.55859375 26.28515625 C-6.88786498 23.54126583 -5.98488167 20.91968582 -5.0625 18.25 C-3.01724771 12.24446517 -1.4450623 6.1743571 0 0 Z " fill="#E96F69" transform="translate(216,704)"/>
<path d="M0 0 C0.05607422 0.88751953 0.05607422 0.88751953 0.11328125 1.79296875 C0.51052828 6.56772222 0.94243361 10.11924266 4 14 C4.99 14.66 5.98 15.32 7 16 C7 16.66 7 17.32 7 18 C8.1281311 18.08302368 8.1281311 18.08302368 9.27905273 18.16772461 C12.66557229 18.41959717 16.05152199 18.67845339 19.4375 18.9375 C21.21350586 19.06801758 21.21350586 19.06801758 23.02539062 19.20117188 C24.71245117 19.33168945 24.71245117 19.33168945 26.43359375 19.46484375 C27.99678345 19.58267212 27.99678345 19.58267212 29.59155273 19.70288086 C32 20 32 20 33 21 C35.50416935 21.21063107 37.99140081 21.37572077 40.5 21.5 C47.86486486 21.86486486 47.86486486 21.86486486 49 23 C50.32955625 23.16025901 51.66436608 23.27761003 53 23.375 C56.34424532 23.70152474 59.17127136 24.31701444 62.3125 25.5 C65.86695207 26.78355214 69.04144165 27.26430885 72.8125 27.5 C79.13354356 27.90108144 84.91418829 29.30725767 91 31 C91.96292969 31.25007813 92.92585937 31.50015625 93.91796875 31.7578125 C98.05625847 32.84232981 102.08683871 33.97701584 106.0625 35.5625 C109.92174307 37.09660905 113.80847613 37.80787925 117.8984375 38.47265625 C120 39 120 39 122 41 C123.81485377 41.65759733 125.65253826 42.25302383 127.5 42.8125 C132.55172792 44.4297798 137.1071541 46.43620981 141.796875 48.89453125 C144.45139518 50.22649794 147.14967272 51.17490526 150 52 C150 52.66 150 53.32 150 54 C151.32 54 152.64 54 154 54 C154 54.66 154 55.32 154 56 C154.57234375 56.13277344 155.1446875 56.26554687 155.734375 56.40234375 C157.97650875 56.99380317 160.08579619 57.73288854 162.25 58.5625 C162.95640625 58.83191406 163.6628125 59.10132813 164.390625 59.37890625 C164.92171875 59.58386719 165.4528125 59.78882813 166 60 C166 60.66 166 61.32 166 62 C166.5775 62.144375 167.155 62.28875 167.75 62.4375 C170.875 63.21875 170.875 63.21875 174 64 C174 64.66 174 65.32 174 66 C174.65742187 66.07992187 175.31484375 66.15984375 175.9921875 66.2421875 C180.06067394 67.26723473 183.45103565 69.13226525 187.125 71.125 C187.87257568 71.52662354 188.62015137 71.92824707 189.39038086 72.34204102 C202.36239872 79.3840733 202.36239872 79.3840733 207 83 C207 83.66 207 84.32 207 85 C207.886875 85.0825 208.77375 85.165 209.6875 85.25 C213.44097537 86.09984348 215.25968046 87.34027809 218 90 C218 90.66 218 91.32 218 92 C218.721875 91.9175 219.44375 91.835 220.1875 91.75 C223.91023774 92.08091002 225.21623467 93.55571825 228 96 C229.6396875 97.051875 229.6396875 97.051875 231.3125 98.125 C232.199375 98.74375 233.08625 99.3625 234 100 C234 100.66 234 101.32 234 102 C235.65 102.66 237.3 103.32 239 104 C239 104.66 239 105.32 239 106 C239.66 106 240.32 106 241 106 C241 106.66 241 107.32 241 108 C241.70898438 108.226875 242.41796875 108.45375 243.1484375 108.6875 C246.62089383 110.28578127 248.85442726 112.37444346 251.625 115 C254.36475497 117.58212523 256.86585761 119.91057174 260 122 C260 122.66 260 123.32 260 124 C260.66 124 261.32 124 262 124 C262 124.66 262 125.32 262 126 C262.763125 126.28875 263.52625 126.5775 264.3125 126.875 C267 128 267 128 270 130 C270.3403125 131.0828125 270.3403125 131.0828125 270.6875 132.1875 C272.38759976 135.83057091 274.7815112 137.62192764 277.83984375 140.1640625 C279.92593703 141.93705317 281.83783737 143.79240802 283.75 145.75 C285.58143962 147.62325331 287.25759335 149.18980562 289.375 150.75 C291 152 291 152 292 155 C292.66 155.33 293.32 155.66 294 156 C294.33 156.99 294.66 157.98 295 159 C297.46326712 160.6446674 297.46326712 160.6446674 300 162 C300.33 162.33 300.66 162.66 301 163 C300.95378365 170.22130546 299.89090242 176.40874248 297 183 C295.43037581 186.64952834 294.41056607 190.18993112 293.5625 194.0703125 C293.30726563 195.21371094 293.05203125 196.35710937 292.7890625 197.53515625 C292.26138263 199.93583842 291.73535086 202.33688342 291.2109375 204.73828125 C290.95570313 205.87910156 290.70046875 207.01992188 290.4375 208.1953125 C290.09525391 209.75789795 290.09525391 209.75789795 289.74609375 211.35205078 C289 214 289 214 287 217 C286.17849019 220.50109415 285.53569446 224.01929041 284.87890625 227.5546875 C284.02380695 230.90667677 282.88349668 233.13403073 281 236 C280.30420546 238.19130534 280.30420546 238.19130534 280 240 C279.01 239.67 278.02 239.34 277 239 C277 238.34 277 237.68 277 237 C276.34 237 275.68 237 275 237 C275 236.34 275 235.68 275 235 C274.34 235 273.68 235 273 235 C272.79375 234.34 272.5875 233.68 272.375 233 C270.82242251 229.61255819 268.85357514 226.98346092 266.578125 224.05078125 C265.13411343 222.17428106 263.77981565 220.26225596 262.4375 218.3125 C260.94229324 216.20217653 259.53528345 214.53528345 257.6875 212.6875 C255.25028499 210.25028499 253.2316882 207.78211676 251.125 205.0625 C248.21372076 201.35323307 245.30696186 198.28338933 241.54296875 195.44921875 C240 194 240 194 238.6328125 191.67578125 C234.33225872 184.62822303 224.99529838 174.66509946 217 172 C217 171.34 217 170.68 217 170 C216.34 170 215.68 170 215 170 C215 169.34 215 168.68 215 168 C214.443125 167.79375 213.88625 167.5875 213.3125 167.375 C210.67570362 165.80717512 209.23667935 163.84272258 207.36328125 161.453125 C205.2944446 159.24794668 202.71068112 158.26498452 200 157 C199.34 156.01 198.68 155.02 198 154 C197.278125 153.731875 196.55625 153.46375 195.8125 153.1875 C191.94681786 151.5553231 188.87718953 149.0513134 186 146 C186 145.34 186 144.68 186 144 C185.319375 143.7525 184.63875 143.505 183.9375 143.25 C180.43134917 141.75802092 177.28379632 139.93164489 174 138 C174 137.34 174 136.68 174 136 C173.05125 135.690625 172.1025 135.38125 171.125 135.0625 C168 134 168 134 166 133 C166 132.34 166 131.68 166 131 C165.18015625 130.8453125 165.18015625 130.8453125 164.34375 130.6875 C160.46612646 129.55006376 157.14957419 127.37118525 153.65625 125.375 C151.15800235 123.94301701 151.15800235 123.94301701 148.84375 123.5 C147 123 147 123 145.73046875 121.62109375 C143.05618805 119.11584208 139.71490525 118.24437588 136.3125 117.0625 C129.54495608 114.62307163 123.33650339 111.80727267 117 108.375 C114.09082477 107.04162802 111.28201312 106.24981151 108.16796875 105.5390625 C104.37150182 104.59507613 100.69330423 103.2823973 97 102 C97 101.34 97 100.68 97 100 C95.783125 99.7525 94.56625 99.505 93.3125 99.25 C89.35335348 98.38122177 85.54401035 97.24523467 81.6875 96 C76.39930052 94.32776889 71.24660522 93.30724625 65.76953125 92.49609375 C63.19205361 92.03440171 60.89876028 91.37870926 58.4375 90.5 C50.60858448 87.70698149 42.46782709 86.82628914 34.21484375 86.24609375 C32 86 32 86 30 85 C27.22468066 84.76509836 24.46762701 84.57917732 21.6875 84.4375 C20.92759766 84.39431641 20.16769531 84.35113281 19.38476562 84.30664062 C15.58529643 84.09867663 11.8067094 83.94681244 8 84 C8 84.66 8 85.32 8 86 C7.05125 86.680625 6.1025 87.36125 5.125 88.0625 C1.07722978 91.23198046 0.61938935 95.0982808 0 100 C-3.99245001 99.1581138 -6.72790878 97.45406841 -10 95 C-10 94.34 -10 93.68 -10 93 C-10.67546875 92.80664062 -11.3509375 92.61328125 -12.046875 92.4140625 C-12.93890625 92.15367187 -13.8309375 91.89328125 -14.75 91.625 C-15.63171875 91.36976563 -16.5134375 91.11453125 -17.421875 90.8515625 C-19.76080572 90.0790066 -21.83442562 89.16374324 -24 88 C-24 87.34 -24 86.68 -24 86 C-24.763125 85.731875 -25.52625 85.46375 -26.3125 85.1875 C-29 84 -29 84 -30.34375 82.6171875 C-33.11260049 79.91364009 -36.56272122 78.28877047 -39.91796875 76.40234375 C-40.60503906 75.93957031 -41.29210937 75.47679687 -42 75 C-42 74.34 -42 73.68 -42 73 C-43.299375 72.62875 -43.299375 72.62875 -44.625 72.25 C-47.52442385 71.17613931 -49.58458375 69.98835992 -52.078125 68.21875 C-56.48951143 65.42128543 -61.30582392 63.27872625 -66 61 C-66 60.34 -66 59.68 -66 59 C-66.56203125 58.72414062 -67.1240625 58.44828125 -67.703125 58.1640625 C-70.08618794 56.95631972 -72.4179008 55.67823191 -74.75 54.375 C-75.94882812 53.70597656 -75.94882812 53.70597656 -77.171875 53.0234375 C-77.77515625 52.68570313 -78.3784375 52.34796875 -79 52 C-79 48 -79 48 -77.734375 46.3359375 C-75.42285411 44.55544168 -72.86603025 43.8375418 -70.1328125 42.89453125 C-67.86233737 41.94226238 -66.09819827 40.7779506 -64.125 39.3125 C-61 37 -61 37 -59 37 C-59 36.34 -59 35.68 -59 35 C-58.34 35 -57.68 35 -57 35 C-57 34.34 -57 33.68 -57 33 C-55.71086513 32.32845067 -54.41859796 31.66291141 -53.125 31 C-52.40570313 30.62875 -51.68640625 30.2575 -50.9453125 29.875 C-49 29 -49 29 -47 29 C-47 28.34 -47 27.68 -47 27 C-45.98679687 26.46890625 -44.97359375 25.9378125 -43.9296875 25.390625 C-42.57803541 24.67725306 -41.22647793 23.96370183 -39.875 23.25 C-39.20984375 22.90195313 -38.5446875 22.55390625 -37.859375 22.1953125 C-34.68258366 20.51348179 -31.6401059 18.79955478 -28.6953125 16.734375 C-26 15 -26 15 -23 15 C-23 14.34 -23 13.68 -23 13 C-22.48953125 12.731875 -21.9790625 12.46375 -21.453125 12.1875 C-15.54333853 9.00208318 -10.02630963 5.38982568 -4.50390625 1.57421875 C-2 0 -2 0 0 0 Z " fill="#E5403C" transform="translate(528,78)"/>
<path d="M0 0 C-2.38481222 2.76136152 -4.62461563 3.71413929 -8 5 C-11.664349 6.8414638 -11.664349 6.8414638 -14 10 C-14.66 10 -15.32 10 -16 10 C-17.96902457 15.9070737 -17.73533249 22.57772827 -15.9375 28.5 C-13.874489 31.16194968 -11.82455088 32.54809629 -8.83203125 34.06640625 C-6.06770198 35.4750943 -3.57021273 37.26790012 -1 39 C-0.05125 39.53625 0.8975 40.0725 1.875 40.625 C2.57625 41.07875 3.2775 41.5325 4 42 C4 42.66 4 43.32 4 44 C4.78375 44.0825 5.5675 44.165 6.375 44.25 C7.24125 44.4975 8.1075 44.745 9 45 C9.433125 45.99 9.433125 45.99 9.875 47 C10.24625 47.66 10.6175 48.32 11 49 C13.32156597 49.40729228 15.6568787 49.74438677 18 50 C18.33 50.66 18.66 51.32 19 52 C20.65438613 52.69658363 22.32254318 53.36096883 24 54 C24.99 54.66 25.98 55.32 27 56 C27 56.99 27 57.98 27 59 C8.95602324 63.8668722 8.95602324 63.8668722 0.25 65.625 C-3.27813486 66.34861515 -6.53502512 67.06187938 -9.8125 68.5625 C-15.07049626 70.93375321 -20.24288685 72 -26 72 C-26 72.66 -26 73.32 -26 74 C-28.37316638 74.94926655 -30.74653128 75.89797832 -33.12109375 76.84375 C-35.01348607 77.60378816 -36.90169698 78.37433704 -38.78515625 79.15625 C-39.66042969 79.5171875 -40.53570312 79.878125 -41.4375 80.25 C-42.24058594 80.58515625 -43.04367187 80.9203125 -43.87109375 81.265625 C-46 82 -46 82 -49 82 C-49 82.66 -49 83.32 -49 84 C-52.87684087 85.19287411 -55.91621923 86 -60 86 C-60 86.66 -60 87.32 -60 88 C-74.13836478 96 -74.13836478 96 -79 96 C-79.185625 96.5775 -79.37125 97.155 -79.5625 97.75 C-81.24414357 100.38213776 -83.07815886 101.36125601 -85.8046875 102.79296875 C-89.42346167 104.78265064 -92.81637477 107.12902706 -96.25390625 109.4140625 C-99.1060855 111.06126701 -101.84955592 112.06550704 -105 113 C-105 113.66 -105 114.32 -105 115 C-106.6875 116.296875 -106.6875 116.296875 -109 117.75 C-112.11569052 119.75398874 -115.12639009 121.8035049 -118.0625 124.0625 C-120.51267925 125.93729469 -122.952845 127.58751804 -125.625 129.125 C-132.80763944 133.48332812 -139.81909964 139.54098085 -145.56713867 145.67138672 C-147 147 -147 147 -149 147 C-149.09152344 147.58136719 -149.18304688 148.16273438 -149.27734375 148.76171875 C-150.17872698 151.55357059 -151.45340627 152.78595397 -153.5625 154.8125 C-154.27921875 155.50601563 -154.9959375 156.19953125 -155.734375 156.9140625 C-157.88508852 158.89420219 -160.08322597 160.79674536 -162.3125 162.6875 C-165.2381119 165.20008434 -167.29257787 167.48471915 -169 171 C-169.33 171.66 -169.66 172.32 -170 173 C-170.66 173 -171.32 173 -172 173 C-172.23074219 173.53753906 -172.46148437 174.07507813 -172.69921875 174.62890625 C-174.38533606 177.70239936 -176.55611927 180.27570182 -178.8125 182.9375 C-179.23853516 183.44990234 -179.66457031 183.96230469 -180.10351562 184.49023438 C-182.19497766 186.98037147 -184.33557541 189.32965349 -186.65625 191.609375 C-188.77665731 193.77219046 -190.20439075 195.69611791 -191.6875 198.3125 C-192.88671875 200.42578125 -192.88671875 200.42578125 -194 202 C-194.66 202 -195.32 202 -196 202 C-196.12375 202.61875 -196.2475 203.2375 -196.375 203.875 C-197 206 -197 206 -199 208 C-199.6425235 210.06874034 -199.6425235 210.06874034 -200 212 C-200.66 212 -201.32 212 -202 212 C-202.268125 212.7425 -202.53625 213.485 -202.8125 214.25 C-204 217 -204 217 -205.4375 218.875 C-210.67458373 225.99743388 -211.68667012 234.26960585 -210.4375 242.875 C-207.8754761 248.44461717 -203.13224844 251.00618841 -198 254 C-196 256 -196 256 -196 259 C-197.63195312 259.54527344 -197.63195312 259.54527344 -199.296875 260.1015625 C-207.06458418 262.74169588 -214.44365187 265.54367262 -221.71875 269.37109375 C-225.86050295 271.42717825 -230.10071808 273.17774891 -234.375 274.9375 C-240.23180847 277.34987442 -245.94254248 279.88987176 -251.5625 282.8125 C-255.3131632 284.7419069 -258.79633781 286.36879581 -262.875 287.4375 C-268.39344652 288.88586304 -273.26295338 291.49756749 -278.29248047 294.13256836 C-279.26918701 294.64122437 -279.26918701 294.64122437 -280.265625 295.16015625 C-281.12849121 295.61853882 -281.12849121 295.61853882 -282.00878906 296.08618164 C-284.58567213 297.26878013 -287.31020838 298.10340279 -290 299 C-290 264.35 -290 229.7 -290 194 C-285 196 -285 196 -284 197 C-281.65012738 197.23527773 -279.29443961 197.41386417 -276.9375 197.5625 C-275.64714844 197.64628906 -274.35679687 197.73007812 -273.02734375 197.81640625 C-272.02832031 197.87699219 -271.02929688 197.93757812 -270 198 C-270 197.34 -270 196.68 -270 196 C-269.29875 195.484375 -268.5975 194.96875 -267.875 194.4375 C-262.97839554 190.286031 -259.76093349 184.75739686 -257 179 C-256.34 179 -255.68 179 -255 179 C-254.79375 178.01515625 -254.5875 177.0303125 -254.375 176.015625 C-252.98939295 171.17087923 -250.08749849 167.65306413 -247 163.75 C-245.91623856 162.34928946 -244.83288869 160.94826037 -243.75 159.546875 C-243.27046875 158.93682617 -242.7909375 158.32677734 -242.296875 157.69824219 C-241.13571034 156.17771106 -240.0612501 154.59187515 -239 153 C-238.01 153 -237.02 153 -236 153 C-235.75765625 152.45730469 -235.5153125 151.91460937 -235.265625 151.35546875 C-233.69485655 148.43209414 -231.77240067 145.94368455 -229.75 143.3125 C-226.41527151 138.95956952 -223.31837846 134.53694208 -220.484375 129.83984375 C-219 128 -219 128 -216.52734375 126.5390625 C-213.66565348 124.79639486 -212.5740342 123.25867174 -210.8125 120.4375 C-206.91979225 114.61558687 -202.3150927 109.56689866 -197 105 C-196.34 105 -195.68 105 -195 105 C-195 104.34 -195 103.68 -195 103 C-194.34 103 -193.68 103 -193 103 C-193 102.34 -193 101.68 -193 101 C-191.56640625 99.5546875 -191.56640625 99.5546875 -189.5625 97.875 C-185.58378677 94.50621429 -181.7229439 91.0296018 -177.8828125 87.50390625 C-176 86 -176 86 -174 86 C-174 85.34 -174 84.68 -174 84 C-169.43716073 79.79204823 -164.52485196 76.76242598 -159 74 C-157.31337542 72.35353315 -155.64488294 70.68816933 -154 69 C-152.68163705 68.30419733 -151.35208914 67.62775567 -150 67 C-149.67 66.34 -149.34 65.68 -149 65 C-148.34 65 -147.68 65 -147 65 C-147 64.34 -147 63.68 -147 63 C-144.98828125 61.5625 -144.98828125 61.5625 -142.3125 60 C-141.44238281 59.484375 -140.57226562 58.96875 -139.67578125 58.4375 C-137 57 -137 57 -134.37109375 55.95703125 C-131.5613297 54.82294197 -129.35579364 53.13483655 -126.92993164 51.34350586 C-124.9665521 49.97671552 -122.97468424 48.829217 -120.87109375 47.69140625 C-117.60152841 45.89911849 -114.37586738 44.05426225 -111.17578125 42.140625 C-109.97405273 41.42712891 -109.97405273 41.42712891 -108.74804688 40.69921875 C-107.10881571 39.7238302 -105.47344656 38.74192495 -103.84179688 37.75390625 C-99.55448764 35.2238046 -96.07997072 33.36109646 -91 33 C-91 32.34 -91 31.68 -91 31 C-90.34 31 -89.68 31 -89 31 C-89 30.34 -89 29.68 -89 29 C-88.07960938 28.64808594 -87.15921875 28.29617187 -86.2109375 27.93359375 C-79.66051093 25.39008634 -73.34395469 22.73499225 -67.125 19.4375 C-59.59145315 15.55867153 -49.60073341 11 -41 11 C-41 10.34 -41 9.68 -41 9 C-39.37191406 8.49339844 -39.37191406 8.49339844 -37.7109375 7.9765625 C-36.26561539 7.52607249 -34.82030343 7.07554993 -33.375 6.625 C-32.66214844 6.40328125 -31.94929688 6.1815625 -31.21484375 5.953125 C-30.51230469 5.73398438 -29.80976563 5.51484375 -29.0859375 5.2890625 C-28.38734619 5.07145264 -27.68875488 4.85384277 -26.96899414 4.62963867 C-25.26709739 4.08541155 -23.57918746 3.49780085 -21.89453125 2.90234375 C-18.70393549 1.90770458 -15.62132974 1.39481793 -12.3125 0.9375 C-1.65121951 -0.5504065 -1.65121951 -0.5504065 0 0 Z " fill="#3293E0" transform="translate(418,108)"/>
<path d="M0 0 C0 33.99 0 67.98 0 103 C-1.32 102.34 -2.64 101.68 -4 101 C-5.3242287 100.63215869 -6.65613912 100.28797019 -8 100 C-8 99.34 -8 98.68 -8 98 C-9.41702513 98.14230808 -10.8336096 98.28900746 -12.25 98.4375 C-13.43335938 98.55931641 -13.43335938 98.55931641 -14.640625 98.68359375 C-16.82364639 98.97634993 -18.8773182 99.42064419 -21 100 C-21 100.66 -21 101.32 -21 102 C-21.7425 102.350625 -22.485 102.70125 -23.25 103.0625 C-27.22475991 105.86289903 -28.3287812 109.54652867 -30 114 C-30.66 114 -31.32 114 -32 114 C-32 114.66 -32 115.32 -32 116 C-32.66 116 -33.32 116 -34 116 C-34.185625 117.11375 -34.37125 118.2275 -34.5625 119.375 C-35.76055098 124.30815111 -38.44358283 127.87225469 -41.44140625 131.8984375 C-43.02698293 133.90930345 -43.02698293 133.90930345 -44 136 C-44.66 136 -45.32 136 -46 136 C-46.33 136.99 -46.66 137.98 -47 139 C-48.65080159 140.68238214 -50.32028066 142.34648904 -52 144 C-53.72945424 146.10519083 -55.4115974 148.2112204 -57.0625 150.375 C-57.48337891 150.91382813 -57.90425781 151.45265625 -58.33789062 152.0078125 C-60.49800669 154.82098691 -62.40180988 157.6268359 -64.109375 160.73828125 C-65.70125247 163.48459878 -66.69113031 164.99637501 -69.1875 166.8125 C-72.02860027 168.69765429 -72.02860027 168.69765429 -73 171 C-73.66 171 -74.32 171 -75 171 C-75 171.66 -75 172.32 -75 173 C-75.66 173 -76.32 173 -77 173 C-77.0825 173.5775 -77.165 174.155 -77.25 174.75 C-78.225982 177.67794601 -79.63511223 179.05244537 -82 181 C-82.99 181 -83.98 181 -85 181 C-85.21398437 181.54011719 -85.42796875 182.08023438 -85.6484375 182.63671875 C-87.48635707 185.85042204 -89.99668061 188.24919204 -92.625 190.8125 C-93.16552002 191.34584961 -93.70604004 191.87919922 -94.26293945 192.42871094 C-98.37073692 196.45392424 -102.61751853 200.27620813 -107 204 C-108.62973926 205.41121203 -110.2546547 206.82801176 -111.875 208.25 C-112.61492187 208.89453125 -113.35484375 209.5390625 -114.1171875 210.203125 C-116.19410924 212.05395995 -116.19410924 212.05395995 -118 215 C-120.53353918 216.7118508 -122.87392417 217.95415424 -125.75 219 C-126.4925 219.33 -127.235 219.66 -128 220 C-128.33 220.99 -128.66 221.98 -129 223 C-131.0625 223.6875 -131.0625 223.6875 -133 224 C-133 224.66 -133 225.32 -133 226 C-137.38461538 229 -137.38461538 229 -140 229 C-140 229.66 -140 230.32 -140 231 C-141.32 231.33 -142.64 231.66 -144 232 C-144 232.66 -144 233.32 -144 234 C-144.556875 234.226875 -145.11375 234.45375 -145.6875 234.6875 C-148.19672664 235.969939 -148.19672664 235.969939 -150.4375 238.5 C-153.00969015 241.00945381 -154.74045098 241.71333591 -158 243 C-158.515625 243.70125 -159.03125 244.4025 -159.5625 245.125 C-160.036875 245.74375 -160.51125 246.3625 -161 247 C-162.32 247 -163.64 247 -165 247 C-165 247.66 -165 248.32 -165 249 C-166.95585325 250.00484204 -168.91476237 251.00373805 -170.875 252 C-171.96554687 252.556875 -173.05609375 253.11375 -174.1796875 253.6875 C-177 255 -177 255 -179 255 C-179 255.66 -179 256.32 -179 257 C-180.28913487 257.67154933 -181.58140204 258.33708859 -182.875 259 C-183.59429688 259.37125 -184.31359375 259.7425 -185.0546875 260.125 C-187 261 -187 261 -189 261 C-189 261.66 -189 262.32 -189 263 C-189.81984375 263.32613281 -190.6396875 263.65226562 -191.484375 263.98828125 C-192.56203125 264.42527344 -193.6396875 264.86226562 -194.75 265.3125 C-195.81734375 265.74175781 -196.8846875 266.17101562 -197.984375 266.61328125 C-200.9318901 267.8320952 -200.9318901 267.8320952 -202.93359375 269.4921875 C-205.80956211 271.59072018 -208.98692792 272.6350839 -212.3125 273.8125 C-213.7557757 274.336983 -215.19847194 274.86306293 -216.640625 275.390625 C-217.36958984 275.65681641 -218.09855469 275.92300781 -218.84960938 276.19726562 C-222.1157847 277.41651909 -225.33665934 278.74108677 -228.5625 280.0625 C-248.24917546 288 -248.24917546 288 -253 288 C-253 288.66 -253 289.32 -253 290 C-264.11416483 294.07726345 -275.28947809 296.39561352 -287 298 C-287 298.66 -287 299.32 -287 300 C-288.65 300 -290.3 300 -292 300 C-291 297 -291 297 -288.78515625 295.61328125 C-287.43744141 294.96939453 -287.43744141 294.96939453 -286.0625 294.3125 C-285.16660156 293.87550781 -284.27070312 293.43851563 -283.34765625 292.98828125 C-281 292 -281 292 -279 292 C-278.67 291.01 -278.34 290.02 -278 289 C-277.01 288.67 -276.02 288.34 -275 288 C-271.96736174 283.45104261 -272.20858624 278.23494793 -273 273 C-276.14132679 265.49928093 -282.97448164 262.3002435 -290 259 C-290 258.34 -290 257.68 -290 257 C-290.66 257 -291.32 257 -292 257 C-292 256.34 -292 255.68 -292 255 C-293.794375 254.62875 -293.794375 254.62875 -295.625 254.25 C-299.80878436 253.20777614 -302.63622805 251.69101756 -306 249 C-306 248.34 -306 247.68 -306 247 C-306.53625 246.731875 -307.0725 246.46375 -307.625 246.1875 C-310.41666667 244.79166667 -313.20833333 243.39583333 -316 242 C-315.67 241.01 -315.34 240.02 -315 239 C-313.28515625 238.33984375 -313.28515625 238.33984375 -311.0625 237.9375 C-310.24394531 237.77894531 -309.42539062 237.62039063 -308.58203125 237.45703125 C-307.72996094 237.30621094 -306.87789062 237.15539062 -306 237 C-293.06725497 235.36434197 -293.06725497 235.36434197 -282 230 C-280.33382885 229.95936168 -278.66611905 229.957279 -277 230 C-277 229.34 -277 228.68 -277 228 C-275.74703125 227.74605469 -274.4940625 227.49210938 -273.203125 227.23046875 C-271.55197005 226.88335095 -269.90093449 226.53566486 -268.25 226.1875 C-267.425 226.02185547 -266.6 225.85621094 -265.75 225.68554688 C-261.42353834 224.76094015 -258.40433548 223.95353306 -255 221 C-253.48228846 220.29972257 -251.93773994 219.65552672 -250.375 219.0625 C-249.49714844 218.72347656 -248.61929688 218.38445312 -247.71484375 218.03515625 C-246.81894531 217.69355469 -245.92304687 217.35195313 -245 217 C-233.14671834 212.3491704 -221.95960104 207.14526897 -211 200.625 C-208 199 -208 199 -205 199 C-205 198.01 -205 197.02 -205 196 C-204.19820312 195.64550781 -203.39640625 195.29101562 -202.5703125 194.92578125 C-191.00791146 189.51164108 -180.86437532 182.25009925 -170.88525391 174.31933594 C-169 173 -169 173 -167 173 C-167 172.01 -167 171.02 -167 170 C-163.66666667 167 -163.66666667 167 -161 167 C-161 166.34 -161 165.68 -161 165 C-160.071875 164.566875 -159.14375 164.13375 -158.1875 163.6875 C-155.48254066 162.2554627 -154.0458389 161.14813084 -152 159 C-151.34 159 -150.68 159 -150 159 C-149.89816406 158.40832031 -149.79632812 157.81664062 -149.69140625 157.20703125 C-148.879256 154.61457424 -147.8918639 153.55282682 -145.9375 151.6875 C-145.31359375 151.08808594 -144.6896875 150.48867188 -144.046875 149.87109375 C-141.31774696 147.37633739 -138.52916725 144.95772806 -135.69921875 142.578125 C-133.77407483 140.91265024 -133.77407483 140.91265024 -132 138 C-130.34051852 136.98812105 -128.67419438 135.9873454 -127 135 C-126.67 134.34 -126.34 133.68 -126 133 C-125.34 133 -124.68 133 -124 133 C-124 132.34 -124 131.68 -124 131 C-123.34 131 -122.68 131 -122 131 C-121.67 129.35 -121.34 127.7 -121 126 C-120.34 126 -119.68 126 -119 126 C-119 125.34 -119 124.68 -119 124 C-118.34 124 -117.68 124 -117 124 C-116.34 122.35 -115.68 120.7 -115 119 C-114.34 119 -113.68 119 -113 119 C-113 118.34 -113 117.68 -113 117 C-112.34 117 -111.68 117 -111 117 C-110.67 116.01 -110.34 115.02 -110 114 C-108.3563186 112.31066078 -106.6857124 110.64740076 -105 109 C-101.21207444 104.85131962 -99.16706207 101.14677241 -97 96 C-94.9468253 92.68708083 -92.73734993 89.71500599 -89.9375 87 C-87.85007283 84.84523647 -86.50267715 82.56223164 -85.078125 79.93359375 C-83.53580717 77.16748026 -81.79078082 74.53954608 -80.05078125 71.89453125 C-78.96405266 69.93518788 -78.44144459 68.18781881 -78 66 C-77.34 66 -76.68 66 -76 66 C-76.34681105 60.51081826 -76.85259312 56.65268843 -80 52 C-80 51.01 -80 50.02 -80 49 C-80.63808594 48.81824219 -81.27617188 48.63648438 -81.93359375 48.44921875 C-83.17302734 48.07216797 -83.17302734 48.07216797 -84.4375 47.6875 C-85.67306641 47.32205078 -85.67306641 47.32205078 -86.93359375 46.94921875 C-87.61550781 46.63597656 -88.29742188 46.32273437 -89 46 C-89.33 45.01 -89.66 44.02 -90 43 C-92.01508358 42.26676204 -92.01508358 42.26676204 -94 42 C-93 39 -93 39 -90.890625 37.8671875 C-89.58351563 37.37605469 -89.58351563 37.37605469 -88.25 36.875 C-87.38890625 36.54242187 -86.5278125 36.20984375 -85.640625 35.8671875 C-83.10300543 35.03382723 -80.62790754 34.46319234 -78 34 C-78 33.34 -78 32.68 -78 32 C-75.03 31.67 -72.06 31.34 -69 31 C-69 30.34 -69 29.68 -69 29 C-68.27296875 28.70867188 -67.5459375 28.41734375 -66.796875 28.1171875 C-61.33750399 25.89144394 -56.00303107 23.55511789 -50.75 20.875 C-46.86025284 18.89219 -43.02874081 17.16096581 -38.91796875 15.703125 C-33.53019377 13.72797328 -28.36745123 11.20856761 -23.25 8.625 C-19.24463697 6.61291622 -15.22986351 4.6243709 -11.1875 2.6875 C-10.12917969 2.17574219 -9.07085938 1.66398438 -7.98046875 1.13671875 C-5 0 -5 0 0 0 Z " fill="#7C8185" transform="translate(896,618)"/>
<path d="M0 0 C16.83 0 33.66 0 51 0 C51 30.03 51 60.06 51 91 C51.99 91 52.98 91 54 91 C54.0928125 89.9171875 54.0928125 89.9171875 54.1875 88.8125 C55.2553751 85.11600926 57.10819816 83.46861132 60 81 C60.66 81 61.32 81 62 81 C62 80.34 62 79.68 62 79 C62.66 79 63.32 79 64 79 C64.2475 78.44828125 64.495 77.8965625 64.75 77.328125 C66.24234474 74.54863293 68.03672523 72.2185293 70 69.75 C70.70125 68.85796875 71.4025 67.9659375 72.125 67.046875 C72.74375 66.37140625 73.3625 65.6959375 74 65 C74.66 65 75.32 65 76 65 C76.25910156 64.44828125 76.51820313 63.8965625 76.78515625 63.328125 C78.17313604 60.66820232 79.75071524 58.23120597 81.4375 55.75 C82.33275391 54.41195312 82.33275391 54.41195312 83.24609375 53.046875 C83.82488281 52.37140625 84.40367187 51.6959375 85 51 C85.99 51 86.98 51 88 51 C88.37125 50.195625 88.37125 50.195625 88.75 49.375 C90.30652537 46.4176018 92.03435673 43.70275949 94 41 C94.66 41 95.32 41 96 41 C96 40.34 96 39.68 96 39 C96.66 39 97.32 39 98 39 C98.28875 38.4225 98.5775 37.845 98.875 37.25 C99.431875 36.13625 99.431875 36.13625 100 35 C100.4640625 33.948125 100.4640625 33.948125 100.9375 32.875 C102 31 102 31 105 29 C105.45375 28.21625 105.9075 27.4325 106.375 26.625 C108.22397236 23.6381985 110.24890136 22.1615775 113 20 C116.58829328 16.10548331 116.58829328 16.10548331 118.9375 11.4375 C120.45775763 7.94985015 123.05695044 6.3424272 126 4 C126.4470076 3.29909241 126.8940152 2.59818481 127.35456848 1.8760376 C129 0 129 0 131.44877625 -0.48101807 C132.90438713 -0.4676944 132.90438713 -0.4676944 134.3894043 -0.45410156 C135.49031906 -0.45379944 136.59123383 -0.45349731 137.72550964 -0.45318604 C138.91308365 -0.43254089 140.10065765 -0.41189575 141.32421875 -0.390625 C143.14902519 -0.38213531 143.14902519 -0.38213531 145.01069641 -0.37347412 C148.90336144 -0.35105034 152.7951123 -0.30084013 156.6875 -0.25 C159.32355443 -0.22994289 161.95962327 -0.21169075 164.59570312 -0.1953125 C171.06411498 -0.15116572 177.53199219 -0.08419287 184 0 C183.21138045 4.63313988 180.61269668 6.13994846 177 9 C176.67 9.66 176.34 10.32 176 11 C175.34 11 174.68 11 174 11 C173.71125 11.598125 173.4225 12.19625 173.125 12.8125 C172 15 172 15 170 18 C169.34 18 168.68 18 168 18 C167.67 19.32 167.34 20.64 167 22 C166.34 22 165.68 22 165 22 C165 22.66 165 23.32 165 24 C164.34 24 163.68 24 163 24 C162.67 25.65 162.34 27.3 162 29 C161.01 29.33 160.02 29.66 159 30 C157.63169753 31.6336861 157.63169753 31.6336861 156.4375 33.5625 C155.18359375 35.50390625 155.18359375 35.50390625 154 37 C153.34 37 152.68 37 152 37 C151.71125 37.598125 151.4225 38.19625 151.125 38.8125 C150 41 150 41 148 44 C147.34 44 146.68 44 146 44 C144.79371992 46.33214148 143.8345262 48.49642139 143 51 C142.360625 51.144375 141.72125 51.28875 141.0625 51.4375 C140.381875 51.623125 139.70125 51.80875 139 52 C138.731875 52.55558594 138.46375 53.11117187 138.1875 53.68359375 C136.57770267 56.82375762 134.34564451 59.05400255 131.9375 61.625 C128.58466353 65.04209753 128.58466353 65.04209753 126 69 C125.34 69 124.68 69 124 69 C123.71125 69.598125 123.4225 70.19625 123.125 70.8125 C122 73 122 73 120 76 C119.34 76 118.68 76 118 76 C117.73703125 76.57878906 117.4740625 77.15757812 117.203125 77.75390625 C115.9438234 80.10487515 114.47108285 81.90678308 112.75 83.9375 C111.13617206 85.96812916 111.13617206 85.96812916 110 88 C110.34977824 90.70835053 110.34977824 90.70835053 112 93 C112.67795528 94.99620166 113.34733531 96.99538701 114 99 C114.66 99 115.32 99 116 99 C117.7265625 100.8984375 117.7265625 100.8984375 119.625 103.375 C120.25664062 104.18710937 120.88828125 104.99921875 121.5390625 105.8359375 C123 108 123 108 123 110 C123.66 110 124.32 110 125 110 C125.38671875 110.72445312 125.7734375 111.44890625 126.171875 112.1953125 C129.82095295 118.96959088 133.39656699 125.26127525 138.5625 131 C141.37682715 134.14436551 143.24500084 137.13900184 145 141 C145.556875 141.7425 146.11375 142.485 146.6875 143.25 C148 145 148 145 148 147 C148.66 147 149.32 147 150 147 C150 147.66 150 148.32 150 149 C150.66 149 151.32 149 152 149 C152 149.66 152 150.32 152 151 C152.66 151 153.32 151 154 151 C156.875 157.625 156.875 157.625 158 161 C158.66 161 159.32 161 160 161 C161.18359375 162.609375 161.18359375 162.609375 162.4375 164.75 C163.82206821 167.0685373 165.17149543 169.22471815 166.8125 171.375 C168 173 168 173 168 175 C168.66 175 169.32 175 170 175 C170.268125 175.804375 170.53625 176.60875 170.8125 177.4375 C171.204375 178.283125 171.59625 179.12875 172 180 C172.99 180.33 173.98 180.66 175 181 C175.69937532 182.31647119 176.36729133 183.65022151 177 185 C177.66 185.33 178.32 185.66 179 186 C179.37125 186.969375 179.7425 187.93875 180.125 188.9375 C181.96884871 193.59056324 185.14265076 197.08315486 188.35546875 200.86328125 C190 203 190 203 190 205 C170.53 205 151.06 205 131 205 C130.01 202.69 129.02 200.38 128 198 C127.34 197.67 126.68 197.34 126 197 C126 196.34 126 195.68 126 195 C125.34 195 124.68 195 124 195 C123.61328125 194.18015625 123.2265625 193.3603125 122.828125 192.515625 C122.30734375 191.43796875 121.7865625 190.3603125 121.25 189.25 C120.73953125 188.18265625 120.2290625 187.1153125 119.703125 186.015625 C118.06160131 183.10907388 116.39966565 181.27723373 114 179 C113.03698716 177.29867731 112.07572895 175.59605293 111.1484375 173.875 C109.46604713 171.12824022 107.3529834 168.83973699 105.171875 166.48046875 C104 165 104 165 104 163 C103.34 163 102.68 163 102 163 C100.125 160.5859375 100.125 160.5859375 98 157.375 C97.29875 156.33085938 96.5975 155.28671875 95.875 154.2109375 C94.09816848 151.16811353 92.97285583 148.37459365 92 145 C91.34 145 90.68 145 90 145 C90 144.34 90 143.68 90 143 C89.34 143 88.68 143 88 143 C85.75517829 140.17152464 83.90866737 137.06263208 82 134 C81.5771875 133.32324219 81.154375 132.64648438 80.71875 131.94921875 C79.00661351 129.09361968 78 127.38667905 78 124 C72.36688654 125.36560326 69.34417398 129.56269408 66 134 C65.06118438 135.72116196 64.12228099 137.44282404 63.23057556 139.18885803 C61.62864578 141.54655336 59.60955439 143.07663303 57.43579102 144.91577148 C52.7429643 149.55822312 51.94190089 152.91691532 51.8278656 159.4052887 C51.85244339 160.56189499 51.87702118 161.71850128 51.90234375 162.91015625 C51.89288223 164.11820419 51.88342072 165.32625214 51.87367249 166.57090759 C51.85319004 170.40270653 51.89440009 174.23094181 51.9375 178.0625 C51.93442347 180.67123197 51.92730449 183.27996251 51.91601562 185.88867188 C51.88967386 192.26135182 51.94686158 198.62551559 52 205 C34.84 205 17.68 205 0 205 C0 137.35 0 69.7 0 0 Z " fill="#F7F8F7" transform="translate(334,412)"/>
<path d="M0 0 C1.51246383 -0.0116672 3.02488206 -0.03234293 4.53710938 -0.06152344 C6.7636201 -0.10419425 8.98895189 -0.12034527 11.21582031 -0.13061523 C12.51970703 -0.14519775 13.82359375 -0.15978027 15.16699219 -0.17480469 C19.35422442 0.37486948 21.36786333 1.8406133 24.74707031 4.29516602 C27.12565095 5.1621869 27.12565095 5.1621869 29.48925781 5.56079102 C30.32714844 5.72836914 31.16503906 5.89594727 32.02832031 6.06860352 C33.31222656 6.30450195 33.31222656 6.30450195 34.62207031 6.54516602 C35.50121094 6.71790039 36.38035156 6.89063477 37.28613281 7.06860352 C39.43774957 7.48957201 41.59094933 7.89803624 43.74707031 8.29516602 C43.74707031 8.95516602 43.74707031 9.61516602 43.74707031 10.29516602 C44.74867188 10.21266602 45.75027344 10.13016602 46.78222656 10.04516602 C51.57050878 10.34708726 54.20253538 11.80060022 58.18457031 14.29516602 C58.82072266 14.67672852 59.456875 15.05829102 60.11230469 15.45141602 C61.66552023 16.38568101 63.20751894 17.33855157 64.74707031 18.29516602 C64.74707031 18.95516602 64.74707031 19.61516602 64.74707031 20.29516602 C65.73707031 20.62516602 66.72707031 20.95516602 67.74707031 21.29516602 C67.04889087 24.904622 66.2683065 28.47949518 65.37207031 32.04516602 C65.13746094 33.00938477 64.90285156 33.97360352 64.66113281 34.96704102 C64.20867187 36.11946289 64.20867187 36.11946289 63.74707031 37.29516602 C62.75707031 37.62516602 61.76707031 37.95516602 60.74707031 38.29516602 C60.74707031 39.94516602 60.74707031 41.59516602 60.74707031 43.29516602 C60.08707031 43.29516602 59.42707031 43.29516602 58.74707031 43.29516602 C58.74707031 44.94516602 58.74707031 46.59516602 58.74707031 48.29516602 C58.08707031 48.29516602 57.42707031 48.29516602 56.74707031 48.29516602 C56.62332031 49.36766602 56.49957031 50.44016602 56.37207031 51.54516602 C55.85063095 54.67380217 55.34618777 56.62997025 53.74707031 59.29516602 C52.42707031 59.29516602 51.10707031 59.29516602 49.74707031 59.29516602 C49.74707031 58.63516602 49.74707031 57.97516602 49.74707031 57.29516602 C48.69519531 57.19204102 47.64332031 57.08891602 46.55957031 56.98266602 C42.71613963 56.28958835 41.02160621 55.27422858 37.74707031 53.29516602 C35.554743 52.40071771 33.34511389 51.54778199 31.12207031 50.73266602 C27.64637025 49.45612171 24.83444669 48.35341693 21.74707031 46.29516602 C19.75737081 45.90502886 17.75687162 45.56313952 15.74707031 45.29516602 C15.74707031 44.63516602 15.74707031 43.97516602 15.74707031 43.29516602 C7.49680563 42.36707663 -0.64331249 42.17210312 -8.94042969 42.23266602 C-10.13087891 42.23717773 -11.32132813 42.24168945 -12.54785156 42.24633789 C-15.44959905 42.25799149 -18.35123594 42.27435042 -21.25292969 42.29516602 C-21.25292969 42.95516602 -21.25292969 43.61516602 -21.25292969 44.29516602 C-22.57292969 44.29516602 -23.89292969 44.29516602 -25.25292969 44.29516602 C-25.25292969 44.95516602 -25.25292969 45.61516602 -25.25292969 46.29516602 C-27.72792969 46.79016602 -27.72792969 46.79016602 -30.25292969 47.29516602 C-30.58292969 48.61516602 -30.91292969 49.93516602 -31.25292969 51.29516602 C-31.91292969 51.29516602 -32.57292969 51.29516602 -33.25292969 51.29516602 C-33.25292969 56.90516602 -33.25292969 62.51516602 -33.25292969 68.29516602 C-32.59292969 68.29516602 -31.93292969 68.29516602 -31.25292969 68.29516602 C-31.25292969 69.28516602 -31.25292969 70.27516602 -31.25292969 71.29516602 C-30.71667969 71.56329102 -30.18042969 71.83141602 -29.62792969 72.10766602 C-28.45230469 72.69547852 -28.45230469 72.69547852 -27.25292969 73.29516602 C-26.22167969 73.79016602 -25.19042969 74.28516602 -24.12792969 74.79516602 C-21.25292969 76.29516602 -21.25292969 76.29516602 -19.25292969 78.29516602 C-17.34659559 79.01213088 -17.34659559 79.01213088 -15.15527344 79.54907227 C-14.35412109 79.76370117 -13.55296875 79.97833008 -12.72753906 80.19946289 C-11.89029297 80.41666992 -11.05304688 80.63387695 -10.19042969 80.85766602 C-8.53210329 81.29353265 -6.87450646 81.73218779 -5.21777344 82.17407227 C-4.48163818 82.36557861 -3.74550293 82.55708496 -2.98706055 82.75439453 C-1.25292969 83.29516602 -1.25292969 83.29516602 -0.25292969 84.29516602 C2.07524995 84.66277333 4.40890881 84.99758182 6.74707031 85.29516602 C6.74707031 85.95516602 6.74707031 86.61516602 6.74707031 87.29516602 C8.72707031 87.29516602 10.70707031 87.29516602 12.74707031 87.29516602 C12.74707031 87.95516602 12.74707031 88.61516602 12.74707031 89.29516602 C15.71707031 89.29516602 18.68707031 89.29516602 21.74707031 89.29516602 C21.74707031 89.95516602 21.74707031 90.61516602 21.74707031 91.29516602 C22.59527344 91.23329102 23.44347656 91.17141602 24.31738281 91.10766602 C28.38059006 91.32980035 30.97997364 92.51128193 34.62207031 94.29516602 C35.77449219 94.85204102 36.92691406 95.40891602 38.11425781 95.98266602 C38.98308594 96.41579102 39.85191406 96.84891602 40.74707031 97.29516602 C40.74707031 97.95516602 40.74707031 98.61516602 40.74707031 99.29516602 C42.17019531 99.51172852 42.17019531 99.51172852 43.62207031 99.73266602 C46.74707031 100.29516602 46.74707031 100.29516602 48.74707031 101.29516602 C48.74707031 101.95516602 48.74707031 102.61516602 48.74707031 103.29516602 C49.29363281 103.54137695 49.84019531 103.78758789 50.40332031 104.04125977 C57.72995579 107.96100975 64.23952182 113.15344761 66.96582031 121.15454102 C67.69791722 123.41204546 67.69791722 123.41204546 69.26660156 125.61938477 C73.72862627 133.68399407 73.37874265 146.30485268 72.74707031 155.29516602 C72.41707031 156.28516602 72.08707031 157.27516602 71.74707031 158.29516602 C71.62177154 160.04378001 71.52016421 161.79415934 71.43457031 163.54516602 C70.99571176 168.91764413 69.6473643 171.8128935 66.74707031 176.29516602 C66.43769531 177.32641602 66.12832031 178.35766602 65.80957031 179.42016602 C64.46750095 183.05164782 62.60142363 184.70029936 59.74707031 187.29516602 C58.68200953 188.3968628 57.61952861 189.50105918 56.55957031 190.60766602 C53.74707031 193.29516602 53.74707031 193.29516602 51.74707031 193.29516602 C51.74707031 193.95516602 51.74707031 194.61516602 51.74707031 195.29516602 C48.88253563 197.41621102 45.71289017 199.08792239 42.62207031 200.85766602 C41.76613281 201.36491211 40.91019531 201.8721582 40.02832031 202.39477539 C35.61668689 204.94334208 31.94184789 206.94600883 26.74707031 207.29516602 C26.74707031 207.95516602 26.74707031 208.61516602 26.74707031 209.29516602 C25.79445313 209.42793945 24.84183594 209.56071289 23.86035156 209.69750977 C21.97896484 209.96241211 21.97896484 209.96241211 20.05957031 210.23266602 C18.81820312 210.40668945 17.57683594 210.58071289 16.29785156 210.76000977 C14.30027028 211.06107537 12.30493345 211.38959391 10.3293457 211.81152344 C-4.05519706 214.50565024 -19.50955396 212.32452733 -33.81542969 209.98266602 C-34.4788739 209.87597595 -35.14231812 209.76928589 -35.8258667 209.65936279 C-42.95071409 208.49439488 -49.60869309 207.15227154 -56.25292969 204.29516602 C-56.25292969 203.63516602 -56.25292969 202.97516602 -56.25292969 202.29516602 C-56.95804688 202.18301758 -57.66316406 202.07086914 -58.38964844 201.95532227 C-61.5268248 201.23201694 -64.15420875 200.10058911 -67.06542969 198.73266602 C-68.04125 198.27762695 -69.01707031 197.82258789 -70.02246094 197.35375977 C-71.12654297 196.82975586 -71.12654297 196.82975586 -72.25292969 196.29516602 C-72.25292969 195.63516602 -72.25292969 194.97516602 -72.25292969 194.29516602 C-72.83042969 194.15079102 -73.40792969 194.00641602 -74.00292969 193.85766602 C-76.08626302 193.33683268 -78.16959635 192.81599935 -80.25292969 192.29516602 C-80.25292969 191.63516602 -80.25292969 190.97516602 -80.25292969 190.29516602 C-80.97480469 190.02704102 -81.69667969 189.75891602 -82.44042969 189.48266602 C-85.22883095 188.30534104 -87.69388693 186.90370718 -90.25292969 185.29516602 C-89.74495959 180.97742022 -89.05610189 177.26214487 -87.25292969 173.29516602 C-86.59292969 173.29516602 -85.93292969 173.29516602 -85.25292969 173.29516602 C-85.01832031 172.50883789 -84.78371094 171.72250977 -84.54199219 170.91235352 C-82.88164516 166.25331912 -80.77349277 161.87220941 -78.62792969 157.42016602 C-78.20769531 156.54102539 -77.78746094 155.66188477 -77.35449219 154.75610352 C-76.32376049 152.60093723 -75.28983542 150.4473668 -74.25292969 148.29516602 C-72.27292969 148.62516602 -70.29292969 148.95516602 -68.25292969 149.29516602 C-68.25292969 149.95516602 -68.25292969 150.61516602 -68.25292969 151.29516602 C-67.40408203 151.45758789 -67.40408203 151.45758789 -66.53808594 151.62329102 C-63.90522519 152.39739708 -62.00155813 153.5678714 -59.69042969 155.04516602 C-52.87910956 159.23674764 -45.67874989 162.36216701 -38.25292969 165.29516602 C-38.25292969 165.95516602 -38.25292969 166.61516602 -38.25292969 167.29516602 C-36.27292969 167.29516602 -34.29292969 167.29516602 -32.25292969 167.29516602 C-32.25292969 167.95516602 -32.25292969 168.61516602 -32.25292969 169.29516602 C-29.94292969 169.29516602 -27.63292969 169.29516602 -25.25292969 169.29516602 C-25.25292969 169.95516602 -25.25292969 170.61516602 -25.25292969 171.29516602 C-20.87802564 171.25057905 -16.5044592 171.1803057 -12.13037109 171.08764648 C-10.6467601 171.05966596 -9.16300639 171.03833908 -7.67919922 171.02416992 C0.26787773 170.94378816 7.44134234 170.767869 14.75341797 167.24145508 C16.74707031 166.29516602 16.74707031 166.29516602 18.93603516 165.7902832 C20.94888833 165.46207966 20.94888833 165.46207966 21.93457031 163.35766602 C22.20269531 162.67704102 22.47082031 161.99641602 22.74707031 161.29516602 C23.07707031 160.63516602 23.40707031 159.97516602 23.74707031 159.29516602 C23.81799873 157.08787372 23.83122056 154.87849149 23.80957031 152.67016602 C23.80054688 151.48165039 23.79152344 150.29313477 23.78222656 149.06860352 C23.770625 148.15336914 23.75902344 147.23813477 23.74707031 146.29516602 C23.08707031 146.29516602 22.42707031 146.29516602 21.74707031 146.29516602 C20.28644181 143.64777685 19.74707031 142.40068267 19.74707031 139.29516602 C17.76707031 138.96516602 15.78707031 138.63516602 13.74707031 138.29516602 C13.74707031 137.63516602 13.74707031 136.97516602 13.74707031 136.29516602 C12.78800781 136.14047852 12.78800781 136.14047852 11.80957031 135.98266602 C7.68229706 135.05613528 3.74064082 133.67855972 -0.25292969 132.29516602 C-0.25292969 131.63516602 -0.25292969 130.97516602 -0.25292969 130.29516602 C-1.18105469 130.19204102 -2.10917969 130.08891602 -3.06542969 129.98266602 C-7.32583299 129.38018474 -11.38356967 128.20911364 -15.51855469 127.04125977 C-17.80113707 126.41844086 -20.06112517 125.8916088 -22.37792969 125.42016602 C-27.00212828 124.42625812 -31.52652426 123.11698244 -36.06542969 121.79516602 C-36.80744629 121.58134277 -37.54946289 121.36751953 -38.31396484 121.1472168 C-41.78980519 120.12146823 -45.09117414 119.08765735 -48.25292969 117.29516602 C-48.25292969 116.63516602 -48.25292969 115.97516602 -48.25292969 115.29516602 C-49.89261719 115.10954102 -49.89261719 115.10954102 -51.56542969 114.92016602 C-55.25292969 114.29516602 -55.25292969 114.29516602 -58.25292969 112.29516602 C-58.25292969 111.63516602 -58.25292969 110.97516602 -58.25292969 110.29516602 C-58.99542969 110.00641602 -59.73792969 109.71766602 -60.50292969 109.42016602 C-61.41042969 109.04891602 -62.31792969 108.67766602 -63.25292969 108.29516602 C-63.88585937 108.0412207 -64.51878906 107.78727539 -65.17089844 107.52563477 C-67.88420069 105.92208841 -69.38381595 103.96510602 -71.31542969 101.48266602 C-71.98703125 100.6305957 -72.65863281 99.77852539 -73.35058594 98.90063477 C-76.67667019 94.34519699 -78.59482966 90.95482622 -79.25292969 85.29516602 C-79.91292969 85.29516602 -80.57292969 85.29516602 -81.25292969 85.29516602 C-83.39711167 80.04532362 -83.56512259 75.43163841 -83.50292969 69.85766602 C-83.49543701 68.97675293 -83.48794434 68.09583984 -83.48022461 67.18823242 C-83.28548239 55.18384303 -82.28828977 44.89057594 -76.25292969 34.29516602 C-75.69215044 32.94880174 -75.14817255 31.59520684 -74.62792969 30.23266602 C-74.17417969 29.26329102 -73.72042969 28.29391602 -73.25292969 27.29516602 C-72.26292969 26.96516602 -71.27292969 26.63516602 -70.25292969 26.29516602 C-70.25292969 25.63516602 -70.25292969 24.97516602 -70.25292969 24.29516602 C-69.59292969 24.29516602 -68.93292969 24.29516602 -68.25292969 24.29516602 C-68.25292969 23.63516602 -68.25292969 22.97516602 -68.25292969 22.29516602 C-67.59292969 22.29516602 -66.93292969 22.29516602 -66.25292969 22.29516602 C-66.25292969 21.63516602 -66.25292969 20.97516602 -66.25292969 20.29516602 C-65.26292969 19.96516602 -64.27292969 19.63516602 -63.25292969 19.29516602 C-62.92292969 18.30516602 -62.59292969 17.31516602 -62.25292969 16.29516602 C-59.60058594 14.68969727 -59.60058594 14.68969727 -56.31542969 13.10766602 C-55.23390625 12.57786133 -54.15238281 12.04805664 -53.03808594 11.50219727 C-50.25292969 10.29516602 -50.25292969 10.29516602 -48.25292969 10.29516602 C-48.25292969 9.63516602 -48.25292969 8.97516602 -48.25292969 8.29516602 C-46.02710579 7.45182273 -43.79796942 6.6203805 -41.56542969 5.79516602 C-40.93958984 5.55668945 -40.31375 5.31821289 -39.66894531 5.07250977 C-36.07100669 3.75389352 -33.08772716 3.00187367 -29.25292969 3.29516602 C-29.25292969 2.63516602 -29.25292969 1.97516602 -29.25292969 1.29516602 C-19.49469331 0.46672835 -9.79012299 0.05253132 0 0 Z " fill="#FAFBFA" transform="translate(622.2529296875,407.704833984375)"/>
<path d="M0 0 C0.28772585 5.94633428 -0.26317317 10.41451951 -2.13671875 16.03515625 C-3.43849882 20.50597559 -4.20087051 25.05896097 -4.99731445 29.64282227 C-5.90722492 34.81444984 -5.90722492 34.81444984 -7 37 C-7.1400503 38.53423664 -7.22556045 40.07367259 -7.28125 41.61328125 C-7.31863281 42.53173828 -7.35601562 43.45019531 -7.39453125 44.39648438 C-7.44673828 45.83991211 -7.44673828 45.83991211 -7.5 47.3125 C-7.56926879 49.20456415 -7.64207414 51.09650279 -7.71875 52.98828125 C-7.74904297 53.82915283 -7.77933594 54.67002441 -7.81054688 55.53637695 C-8 58 -8 58 -8.50268555 60.1875 C-9.2563957 64.45001399 -9.20339826 68.69058832 -9.23828125 73.01171875 C-9.24802979 74.00069153 -9.25777832 74.98966431 -9.26782227 76.00860596 C-9.97795253 117.81138286 -9.97795253 117.81138286 -1.57543945 158.54467773 C0.09924668 163.48069849 0.23820116 167.85882496 0 173 C0.66 173 1.32 173 2 173 C3.5912689 177.873261 4.21192221 181.80790596 4 187 C4.66 187 5.32 187 6 187 C6.17015625 187.81082031 6.3403125 188.62164063 6.515625 189.45703125 C8.54083286 198.71050759 10.68133911 208.02200866 16 216 C16.66 216.33 17.32 216.66 18 217 C18 217.66 18 218.32 18 219 C21.96 219.33 25.92 219.66 30 220 C30 222.64 30 225.28 30 228 C29.34 228 28.68 228 28 228 C28.04898438 228.82757812 28.09796875 229.65515625 28.1484375 230.5078125 C27.97568706 234.571994 26.91875295 238.05915564 25.625 241.875 C25.17734037 243.22578691 24.73202383 244.5773526 24.2890625 245.9296875 C24.06766602 246.60225586 23.84626953 247.27482422 23.61816406 247.96777344 C23.00938065 249.96916094 22.53969902 251.9663843 22.0859375 254.0078125 C21.39536458 256.91489029 20.40843655 259.31189396 19 261.9453125 C16.79016389 266.13786267 15.87185425 270.24429775 15 274.875 C13.77810712 280.88310072 12.30080161 286.37651635 9.81640625 292.0078125 C8.74596611 294.61989131 8.2945767 297.20152137 8 300 C7.34 300 6.68 300 6 300 C6.061875 300.79664063 6.12375 301.59328125 6.1875 302.4140625 C5.94326924 307.08497584 4.55213513 310.991267 3 315.375 C2.71382813 316.20644531 2.42765625 317.03789063 2.1328125 317.89453125 C1.43005544 319.93252674 0.71614167 321.96666919 0 324 C-3.33561571 323.25018723 -5.49457375 322.41594674 -8 320 C-8 318.68 -8 317.36 -8 316 C-8.59941406 315.73832031 -9.19882813 315.47664063 -9.81640625 315.20703125 C-12.13061764 313.92779812 -13.29659445 312.73749558 -14.9375 310.6875 C-16.73182446 308.50642892 -18.49663451 306.50336549 -20.5 304.5 C-23.02178232 301.97821768 -25.24644789 299.332 -27.47265625 296.55078125 C-28.9486124 294.87451631 -28.9486124 294.87451631 -31.13671875 293.98828125 C-31.75160156 293.66214844 -32.36648437 293.33601563 -33 293 C-33.75 289.875 -33.75 289.875 -34 287 C-34.66 287 -35.32 287 -36 287 C-36 286.34 -36 285.68 -36 285 C-36.66 285 -37.32 285 -38 285 C-39.49381291 283.29781633 -40.92097016 281.53677109 -42.3125 279.75 C-45.28666093 275.93257103 -48.20997785 272.99005207 -52 270 C-52.8125 267.75 -52.8125 267.75 -53 266 C-53.66 266 -54.32 266 -55 266 C-56.5859375 264.13671875 -56.5859375 264.13671875 -58.375 261.6875 C-60.68867575 258.5227585 -62.83874815 256.29788475 -66 254 C-66.45375 253.236875 -66.9075 252.47375 -67.375 251.6875 C-69.17019713 248.71852013 -71.23185584 246.73531226 -73.79296875 244.4296875 C-75 243 -75 243 -75 240 C-72.89679937 239.49595192 -70.79240209 238.99689492 -68.6875 238.5 C-66.92986328 238.08234375 -66.92986328 238.08234375 -65.13671875 237.65625 C-62 237 -62 237 -59 237 C-59 236.34 -59 235.68 -59 235 C-58.01 234.67 -57.02 234.34 -56 234 C-55.67 233.34 -55.34 232.68 -55 232 C-54.34 232 -53.68 232 -53 232 C-52.43648511 220.61803649 -52.43648511 220.61803649 -56 210 C-57.35622372 205.85994864 -58.26445487 202.36350544 -58 198 C-58.66 198 -59.32 198 -60 198 C-63.63165591 185.76519804 -66.39755514 174.85428295 -66 162 C-66.66 162 -67.32 162 -68 162 C-72.45548451 135.77944122 -74.17791567 110.31214001 -74.25 83.75 C-74.25535767 82.64392395 -74.26071533 81.5378479 -74.26623535 80.39825439 C-74.3411224 59.98472598 -73.29709985 39.99583796 -69 20 C-68.01 20 -67.02 20 -66 20 C-65.67 20.66 -65.34 21.32 -65 22 C-54.89782205 22.9991165 -47.91880459 20.29795077 -39 16 C-38.08734375 15.63519531 -37.1746875 15.27039063 -36.234375 14.89453125 C-33.91937072 14.04310185 -33.91937072 14.04310185 -31.6875 12.5625 C-28.9001745 10.94196192 -26.18648222 9.89921271 -23.1640625 8.8125 C-20.93992967 7.97744652 -18.78940006 7.04145126 -16.625 6.0625 C-3.16578185 0 -3.16578185 0 0 0 Z " fill="#3DBD82" transform="translate(170,425)"/>
<path d="M0 0 C3.35620271 1.38877354 5.07298728 2.91677965 7 6 C7 6.66 7 7.32 7 8 C8.32 8.33 9.64 8.66 11 9 C11.0825 9.78375 11.165 10.5675 11.25 11.375 C11.69722976 14.09725562 11.69722976 14.09725562 13.75 15 C14.86375 15.495 14.86375 15.495 16 16 C21.54441261 20.89971347 21.54441261 20.89971347 22 25 C22.66 25 23.32 25 24 25 C24 25.66 24 26.32 24 27 C24.66 27 25.32 27 26 27 C26 27.66 26 28.32 26 29 C26.66 29 27.32 29 28 29 C28 29.66 28 30.32 28 31 C28.66 31 29.32 31 30 31 C30 31.66 30 32.32 30 33 C30.66 33 31.32 33 32 33 C33.01351664 34.65848177 34.01120795 36.32665961 35 38 C35.721875 38.721875 36.44375 39.44375 37.1875 40.1875 C37.785625 40.785625 38.38375 41.38375 39 42 C39 42.66 39 43.32 39 44 C39.66 44 40.32 44 41 44 C41 44.66 41 45.32 41 46 C41.598125 46.226875 42.19625 46.45375 42.8125 46.6875 C45.59348403 48.35609042 46.5641916 50.1283832 48 53 C48 53.66 48 54.32 48 55 C48.66 55 49.32 55 50 55 C50 55.66 50 56.32 50 57 C50.66 57 51.32 57 52 57 C52 57.66 52 58.32 52 59 C53.32 59.66 54.64 60.32 56 61 C56 61.66 56 62.32 56 63 C56.66 63 57.32 63 58 63 C58 63.66 58 64.32 58 65 C58.66 65 59.32 65 60 65 C60.37125 65.66 60.7425 66.32 61.125 67 C63.36457299 70.58331678 66.09459927 73.15227678 69.16015625 76.03515625 C71.92196056 78.98459907 73 80.94018419 73 85 C72.12988281 85.16435547 72.12988281 85.16435547 71.2421875 85.33203125 C66.38082776 86.31874288 62.40496877 87.63635822 58 90 C57.34 90 56.68 90 56 90 C55.690625 90.61875 55.38125 91.2375 55.0625 91.875 C54.375 93.25 53.6875 94.625 53 96 C52.43356196 103.17851279 52.89843724 108.45225639 56 115 C56.86830591 118.42022844 57.62028978 121.85276574 58.3515625 125.3046875 C58.72842337 127.90245493 58.72842337 127.90245493 60 129 C60.56627299 131.62304692 61.08289967 134.23605084 61.5625 136.875 C61.70107422 137.60847656 61.83964844 138.34195313 61.98242188 139.09765625 C62.53888086 142.10746886 63 144.93257844 63 148 C63.66 148 64.32 148 65 148 C65.13277344 148.85464844 65.26554688 149.70929688 65.40234375 150.58984375 C65.66724609 152.24693359 65.66724609 152.24693359 65.9375 153.9375 C66.19853516 155.59072266 66.19853516 155.59072266 66.46484375 157.27734375 C66.71845136 159.90426929 66.71845136 159.90426929 68 161 C68.28656093 162.81351058 68.51527097 164.63623641 68.71875 166.4609375 C68.84636719 167.57210937 68.97398437 168.68328125 69.10546875 169.828125 C69.23566406 170.99859375 69.36585938 172.1690625 69.5 173.375 C69.75751705 175.6748057 70.01780751 177.97430303 70.28125 180.2734375 C70.39533203 181.29872559 70.50941406 182.32401367 70.62695312 183.38037109 C70.93484465 186.10340381 70.93484465 186.10340381 72 189 C72.30698862 192.38540224 72.50904595 195.77135062 72.71875 199.1640625 C72.68740332 201.89869363 72.68740332 201.89869363 74 203 C74.09959096 205.12913065 74.1279975 207.26160829 74.12939453 209.39306641 C74.13202301 210.39589912 74.13202301 210.39589912 74.13470459 211.41899109 C74.13913119 213.64654078 74.13617771 215.87401188 74.1328125 218.1015625 C74.13348642 219.65603653 74.13445718 221.21051046 74.13571167 222.76498413 C74.13719062 226.03864536 74.13503188 229.31227942 74.13037109 232.5859375 C74.12473968 236.74001102 74.12790902 240.89401899 74.13394356 245.04808998 C74.13760081 248.26901723 74.13638608 251.48992963 74.13381577 254.71085739 C74.1331572 256.23913964 74.13393663 257.76742332 74.13629532 259.29570389 C74.16699022 284.82940185 74.16699022 284.82940185 71.4765625 296.8359375 C70.80778021 299.87286692 70.40204404 302.91766237 70 306 C65.125 305.125 65.125 305.125 64 304 C55.36449589 302.9423181 49.33963273 304.23083159 41.8125 308.46484375 C37.99392741 310.54914795 34.1575484 311.75273548 30 313 C30 313.66 30 314.32 30 315 C27.03 315.33 24.06 315.66 21 316 C21 316.66 21 317.32 21 318 C19.35 318.33 17.7 318.66 16 319 C16 319.66 16 320.32 16 321 C10.74567937 323.45946923 5.69139902 324.90301833 0 326 C0 323.36 0 320.72 0 318 C0.66 318 1.32 318 2 318 C1.95875 317.2575 1.9175 316.515 1.875 315.75 C2 313 2 313 2.97265625 311.09082031 C4.06643607 308.86479123 4.35425353 307.25484795 4.5625 304.796875 C4.67283569 303.58487427 4.67283569 303.58487427 4.78540039 302.34838867 C4.8916272 301.06218628 4.8916272 301.06218628 5 299.75 C5.1637506 297.94907127 5.32913788 296.14829066 5.49609375 294.34765625 C5.57843262 293.44934082 5.66077148 292.55102539 5.74560547 291.62548828 C6.11590873 287.80375957 6.57615522 283.99598184 7.0625 280.1875 C7.29646484 278.35251953 7.29646484 278.35251953 7.53515625 276.48046875 C7.82312243 274.32435221 8.14513464 272.172127 8.52075195 270.02954102 C9.27555427 264.72647359 9.14272228 259.39233976 9.1328125 254.046875 C9.13376923 252.90970032 9.13472595 251.77252563 9.13571167 250.60089111 C9.13638995 248.20723413 9.13456031 245.81357528 9.13037109 243.41992188 C9.12499803 239.74865628 9.13033821 236.07751191 9.13671875 232.40625 C9.13605829 230.07812473 9.13477781 227.74999953 9.1328125 225.421875 C9.13483673 224.32188171 9.13686096 223.22188843 9.13894653 222.08856201 C9.13579437 221.07030334 9.13264221 220.05204468 9.12939453 219.00292969 C9.12859894 218.10693054 9.12780334 217.2109314 9.12698364 216.28778076 C9.0915534 213.8360504 9.0915534 213.8360504 8 211 C7.84441985 208.53952875 7.72427771 206.08760669 7.625 203.625 C7.30678534 197.21659075 6.27906788 191.35421957 4.68359375 185.125 C3.99485143 181.97646368 3.7272954 179.02802 3.5625 175.8125 C3.23535784 170.13971578 2.23871408 164.78030472 1 159.25 C0.82154541 158.45053955 0.64309082 157.6510791 0.45922852 156.82739258 C-0.14343439 153.10909032 -0.14343439 153.10909032 -2 150 C-2.04080783 148.00041636 -2.04254356 145.99954746 -2 144 C-2.66 144 -3.32 144 -4 144 C-6 138 -6 138 -8 132 C-8.35449219 130.98292969 -8.70898438 129.96585938 -9.07421875 128.91796875 C-9.92223747 126.24509962 -10.47802948 123.69869903 -10.9375 120.9375 C-11.67847874 117.09367277 -12.49170896 114.11028089 -15 111 C-15.99 110.67 -16.98 110.34 -18 110 C-18 109.34 -18 108.68 -18 108 C-22.29 107.34 -26.58 106.68 -31 106 C-29.99029391 101.96117563 -28.81695827 97.98713785 -27.625 94 C-25.5588863 87.04341088 -23.67383608 80.06277174 -22 73 C-21.34 73 -20.68 73 -20 73 C-19.81244141 71.48019531 -19.81244141 71.48019531 -19.62109375 69.9296875 C-19.02974265 66.18818303 -18.1512987 62.74885076 -17.0625 59.125 C-15.86383057 55.05731311 -14.7344268 51.02775031 -13.875 46.875 C-13.16200446 43.7174483 -12.40530284 41.79945249 -11 39 C-10.61709538 37.00889599 -10.27395385 35.00899487 -10 33 C-9.34 33 -8.68 33 -8 33 C-8.061875 31.88625 -8.12375 30.7725 -8.1875 29.625 C-8.19663397 24.51911071 -6.99487166 19.69435396 -5 15 C-4.34 14.67 -3.68 14.34 -3 14 C-2.60691653 12.04121132 -2.60691653 12.04121132 -2.5 9.75 C-2.18520449 6.16133117 -1.58627129 3.27829401 0 0 Z " fill="#FACE3C" transform="translate(854,273)"/>
<path d="M0 0 C0.66 0 1.32 0 2 0 C2.51046875 1.17755859 2.51046875 1.17755859 3.03125 2.37890625 C8.05320028 13.26425062 13.78827324 18.82155554 25 23 C25 23.66 25 24.32 25 25 C24.21496094 25.3403125 23.42992187 25.680625 22.62109375 26.03125 C11.73574938 31.05320028 6.17844446 36.78827324 2 48 C1.34 48 0.68 48 0 48 C-0.3403125 47.21496094 -0.680625 46.42992187 -1.03125 45.62109375 C-6.05320028 34.73574938 -11.78827324 29.17844446 -23 25 C-23 24.34 -23 23.68 -23 23 C-22.21496094 22.6596875 -21.42992187 22.319375 -20.62109375 21.96875 C-9.73574938 16.94679972 -4.17844446 11.21172676 0 0 Z " fill="#7D7D7D" transform="translate(967,944)"/>
<path d="M0 0 C0.66 0.33 1.32 0.66 2 1 C2.02333782 9.99818522 2.04102301 18.99635976 2.05181217 27.99456882 C2.05699465 32.17436873 2.06400632 36.35414769 2.07543945 40.53393555 C2.0864353 44.57993203 2.09231157 48.62590857 2.09487724 52.67191887 C2.09670181 54.20299531 2.10026333 55.73407086 2.10573006 57.26513863 C2.19284681 82.71401201 2.19284681 82.71401201 -0.5234375 94.8359375 C-1.19221979 97.87286692 -1.59795596 100.91766237 -2 104 C-3.32 103.67 -4.64 103.34 -6 103 C-5.01 102.505 -5.01 102.505 -4 102 C-3.54753226 99.88585358 -3.54753226 99.88585358 -3.40234375 97.34375 C-3.32306641 96.40402344 -3.24378906 95.46429687 -3.16210938 94.49609375 C-3.08798828 93.50738281 -3.01386719 92.51867187 -2.9375 91.5 C-2.78382633 89.55177352 -2.6264744 87.60383248 -2.46484375 85.65625 C-2.399021 84.78806641 -2.33319824 83.91988281 -2.26538086 83.02539062 C-2 81 -2 81 -1 80 C-0.60764725 76.03681737 -0.56477627 72.04177827 -0.4375 68.0625 C-0.37381226 66.14896729 -0.37381226 66.14896729 -0.30883789 64.19677734 C0.33428634 42.80922379 0.08486885 21.39426416 0 0 Z " fill="#A98B29" transform="translate(926,475)"/>
<path d="M0 0 C2.31674209 -0.00993457 4.63267486 -0.04119714 6.94921875 -0.07226562 C8.42838025 -0.07877753 9.90754794 -0.08403505 11.38671875 -0.08789062 C12.07618591 -0.10023743 12.76565308 -0.11258423 13.47601318 -0.12530518 C15.40136719 -0.11621094 15.40136719 -0.11621094 18.52734375 0.24023438 C19.18734375 1.23023438 19.84734375 2.22023438 20.52734375 3.24023438 C19.33133545 3.23499756 18.13532715 3.22976074 16.90307617 3.22436523 C12.46949002 3.20627726 8.03590714 3.19478843 3.60229492 3.18530273 C1.68269299 3.18027123 -0.23690511 3.1734454 -2.15649414 3.16479492 C-4.91423489 3.15267768 -7.67192501 3.14699427 -10.4296875 3.14257812 C-11.28915482 3.13741684 -12.14862213 3.13225555 -13.03413391 3.12693787 C-13.8347374 3.12686234 -14.63534088 3.1267868 -15.46020508 3.12670898 C-16.16413895 3.12448837 -16.86807281 3.12226776 -17.59333801 3.11997986 C-19.70087281 3.17463904 -19.70087281 3.17463904 -22.47265625 4.24023438 C-24.21913398 4.44046749 -25.97008985 4.60316214 -27.72265625 4.74023438 C-32.00650293 5.09864386 -36.2258227 5.57961582 -40.47265625 6.24023438 C-37.57173123 4.30628436 -36.57590888 3.93891496 -33.28515625 3.61523438 C-32.02703125 3.49148438 -30.76890625 3.36773437 -29.47265625 3.24023438 C-29.47265625 2.58023437 -29.47265625 1.92023438 -29.47265625 1.24023438 C-19.63715746 0.39336524 -9.86762355 0.0256524 0 0 Z " fill="#C8C9C8" transform="translate(622.47265625,407.759765625)"/>
<path d="M0 0 C0.66 0 1.32 0 2 0 C2 0.66 2 1.32 2 2 C7.52967941 2.71033431 12.49983036 3.30267176 18 2 C18 1.34 18 0.68 18 0 C20.31 0 22.62 0 25 0 C15.41815008 6.38789995 2.18498262 7.47608206 -9 9 C-9 9.66 -9 10.32 -9 11 C-10.65 11 -12.3 11 -14 11 C-13 8 -13 8 -10.78515625 6.61328125 C-9.88667969 6.18402344 -8.98820313 5.75476563 -8.0625 5.3125 C-7.16660156 4.87550781 -6.27070312 4.43851563 -5.34765625 3.98828125 C-3 3 -3 3 -1 3 C-0.67 2.01 -0.34 1.02 0 0 Z " fill="#5E6265" transform="translate(618,907)"/>
<path d="M0 0 C2.15189313 3.2278397 2.2519058 4.09309781 2.25878906 7.8125 C2.26509338 8.79202637 2.27139771 9.77155273 2.27789307 10.78076172 C2.2738446 11.84311035 2.26979614 12.90545898 2.265625 14 C2.26753845 15.1048877 2.2694519 16.20977539 2.27142334 17.34814453 C2.27278679 19.69857001 2.26907925 22.04900297 2.26074219 24.39941406 C2.25020729 27.93052043 2.2605467 31.46109877 2.2734375 34.9921875 C2.2803831 45.34405709 2.16246683 55.63208207 1.109375 65.9375 C1.03189026 66.70626465 0.95440552 67.4750293 0.87457275 68.26708984 C0.42692896 72.08204002 -0.24946047 74.49892093 -2 78 C-1.67 69.42 -1.34 60.84 -1 52 C-0.34 52 0.32 52 1 52 C0.67 34.84 0.34 17.68 0 0 Z " fill="#5C4A15" transform="translate(862,484)"/>
<path d="M0 0 C3.94753718 2.63169145 4.01540925 4.43001825 5 9 C5.22705078 12.54858398 5.22705078 12.54858398 5.1953125 16.24609375 C5.1924826 16.90207047 5.18965271 17.55804718 5.18673706 18.23390198 C5.17565984 20.30196409 5.15058063 22.36957173 5.125 24.4375 C5.11495402 25.85090515 5.10583102 27.26431717 5.09765625 28.67773438 C5.07576184 32.11863394 5.04132051 35.55927252 5 39 C4.34 39 3.68 39 3 39 C3.103125 39.804375 3.20625 40.60875 3.3125 41.4375 C2.8775623 46.39578974 0.59354581 49.83180138 -2 54 C-2.495 52.515 -2.495 52.515 -3 51 C-2.38125 50.01 -1.7625 49.02 -1.125 48 C1.39664568 43.94456984 1.59462497 40.14995784 1.82421875 35.453125 C2 33 2 33 3 30 C3.67797094 20.35073924 3.07372367 9.221171 0 0 Z " fill="#777676" transform="translate(691,533)"/>
<path d="M0 0 C0.99966797 0.19916016 0.99966797 0.19916016 2.01953125 0.40234375 C7.90779224 1.53058397 13.7066448 2.32794418 19.6875 2.75390625 C22 3 22 3 25 4 C26.83016552 4.19845168 28.66429914 4.36182897 30.5 4.5 C33.60593842 4.73378031 36.03220722 5.01073574 39 6 C41.49105024 6.09635462 43.94740703 6.1393246 46.4375 6.125 C47.75621094 6.12757813 49.07492187 6.13015625 50.43359375 6.1328125 C53.20238454 6.0297031 55.39077114 5.84082567 58 5 C56.37582228 6.95873888 55.47910266 7.90980663 52.93798828 8.38818359 C52.15665527 8.39156738 51.37532227 8.39495117 50.5703125 8.3984375 C49.69930908 8.40439941 48.82830566 8.41036133 47.9309082 8.41650391 C47.0049585 8.40280762 46.07900879 8.38911133 45.125 8.375 C44.17262451 8.36774902 43.22024902 8.36049805 42.23901367 8.35302734 C35.99979291 8.2311986 30.36236593 7.48264955 24.33984375 5.7890625 C19.28981287 4.59595579 14.16974771 4.20867909 9.0012207 3.82275391 C3.42439059 3.32771474 3.42439059 3.32771474 0.9765625 1.4375 C0.65429688 0.963125 0.33203125 0.48875 0 0 Z " fill="#5D2726" transform="translate(432,854)"/>
<path d="M0 0 C0.33 0 0.66 0 1 0 C1.30976378 26.19224822 1.30976378 26.19224822 -1.5234375 38.8359375 C-2.19221979 41.87286692 -2.59795596 44.91766237 -3 48 C-4.32 47.67 -5.64 47.34 -7 47 C-6.01 46.505 -6.01 46.505 -5 46 C-4.54753226 43.88585358 -4.54753226 43.88585358 -4.40234375 41.34375 C-4.32306641 40.40402344 -4.24378906 39.46429687 -4.16210938 38.49609375 C-4.08798828 37.50738281 -4.01386719 36.51867187 -3.9375 35.5 C-3.78382633 33.55177352 -3.6264744 31.60383248 -3.46484375 29.65625 C-3.36610962 28.35397461 -3.36610962 28.35397461 -3.26538086 27.02539062 C-3 25 -3 25 -2 24 C-1.77210574 22.22309891 -1.60510212 20.43830032 -1.46484375 18.65234375 C-1.37783203 17.57275391 -1.29082031 16.49316406 -1.20117188 15.38085938 C-1.11416016 14.24455078 -1.02714844 13.10824219 -0.9375 11.9375 C-0.84662109 10.79732422 -0.75574219 9.65714844 -0.66210938 8.48242188 C-0.43735454 5.65524259 -0.21684289 2.82779536 0 0 Z " fill="#695718" transform="translate(927,531)"/>
<path d="M0 0 C-2.52956528 3.0916909 -5.22454612 3.90931332 -9 5 C-9 4.34 -9 3.68 -9 3 C-10.58467728 3.28427417 -12.1677057 3.57774818 -13.75 3.875 C-14.63171875 4.03742188 -15.5134375 4.19984375 -16.421875 4.3671875 C-18.96274676 4.88590087 -18.96274676 4.88590087 -20.9609375 6.00390625 C-23.57042649 7.27865662 -26.0077577 7.62840098 -28.875 8.0625 C-29.88304687 8.21847656 -30.89109375 8.37445313 -31.9296875 8.53515625 C-32.94289063 8.68855469 -33.95609375 8.84195313 -35 9 C-37.00049722 9.33033615 -39.00064896 9.66279602 -41 10 C-37.86308752 7.90872501 -35.28876455 7.06334916 -31.6875 6 C-28.43337142 5.03245422 -25.20174933 4.07119019 -22 2.94140625 C-18.76896659 1.92750124 -15.66493163 1.40084421 -12.3125 0.9375 C-1.65121951 -0.5504065 -1.65121951 -0.5504065 0 0 Z " fill="#1D5381" transform="translate(418,108)"/>
<path d="M0 0 C0.33 0 0.66 0 1 0 C0.40546697 17.85649203 0.40546697 17.85649203 -3 26 C-3.66 26 -4.32 26 -5 26 C-5 28.64 -5 31.28 -5 34 C-4.401875 33.649375 -3.80375 33.29875 -3.1875 32.9375 C-1 32 -1 32 2 33 C-3.625 36 -3.625 36 -7 36 C-6.85962479 34.18706911 -6.71255111 32.3746557 -6.5625 30.5625 C-6.48128906 29.55316406 -6.40007813 28.54382813 -6.31640625 27.50390625 C-6 25 -6 25 -5 24 C-4.71898054 21.68047431 -4.55217375 19.36114486 -4.37890625 17.03125 C-4.25386719 16.3609375 -4.12882813 15.690625 -4 15 C-3.34 14.67 -2.68 14.34 -2 14 C-1.53193355 11.66255706 -1.17330206 9.30260921 -0.875 6.9375 C-0.70742188 5.64714844 -0.53984375 4.35679687 -0.3671875 3.02734375 C-0.24601563 2.02832031 -0.12484375 1.02929688 0 0 Z " fill="#755E1A" transform="translate(859,565)"/>
<path d="M0 0 C2.54186606 0.31094086 5.08348598 0.62370536 7.625 0.9375 C8.69427734 1.06801758 8.69427734 1.06801758 9.78515625 1.20117188 C10.83896484 1.33168945 10.83896484 1.33168945 11.9140625 1.46484375 C12.8723999 1.58267212 12.8723999 1.58267212 13.85009766 1.70288086 C15.53139181 1.93523777 17.20610257 2.21534622 18.87695312 2.51367188 C21.96196377 2.99407691 24.93600686 3.20387654 28.0546875 3.31640625 C29.16328125 3.35830078 30.271875 3.40019531 31.4140625 3.44335938 C32.55617188 3.48267578 33.69828125 3.52199219 34.875 3.5625 C36.0403125 3.60568359 37.205625 3.64886719 38.40625 3.69335938 C41.27072625 3.79901629 44.13528321 3.90111799 47 4 C47 4.33 47 4.66 47 5 C42.17619198 5.0246519 37.35242033 5.04283693 32.52856445 5.05493164 C30.88630536 5.05997174 29.24405077 5.06680378 27.60180664 5.07543945 C25.24624521 5.08751926 22.89074291 5.09323139 20.53515625 5.09765625 C19.79660904 5.10281754 19.05806183 5.10797882 18.2971344 5.11329651 C16.53101912 5.1134925 14.76502854 5.06194719 13 5 C12.67 4.67 12.34 4.34 12 4 C9.74456376 3.75738335 7.49054477 3.61667867 5.2265625 3.4765625 C2.60926796 2.91636963 1.6826607 2.03004872 0 0 Z " fill="#303030" transform="translate(583,616)"/>
<path d="M0 0 C0.33 0 0.66 0 1 0 C1.144375 1.134375 1.28875 2.26875 1.4375 3.4375 C1.61171478 6.80777201 1.61171478 6.80777201 3 8 C3.32237212 10.57897694 3.51267304 13.15931821 3.71875 15.75 C3.76200665 17.96665352 3.76200665 17.96665352 5 19 C5.35715887 20.9088491 5.65932328 22.82805175 5.9375 24.75 C6.10894531 25.91402344 6.28039062 27.07804688 6.45703125 28.27734375 C6.63621094 29.50582031 6.81539063 30.73429688 7 32 C7.37290301 34.43782169 7.74778882 36.87534121 8.125 39.3125 C8.41666667 41.20833333 8.70833333 43.10416667 9 45 C5.39303172 41.39303172 5.10379661 35.86378827 4 31 C3.68482422 29.71609375 3.68482422 29.71609375 3.36328125 28.40625 C1.87598993 21.90858011 1.79444528 15.64626913 2 9 C1.34 9 0.68 9 0 9 C0 6.03 0 3.06 0 0 Z " fill="#20764F" transform="translate(102,578)"/>
<path d="M0 0 C0.79921875 0.01804687 1.5984375 0.03609375 2.421875 0.0546875 C3.02515625 0.07789063 3.6284375 0.10109375 4.25 0.125 C4.25 0.785 4.25 1.445 4.25 2.125 C6.725 2.62 6.725 2.62 9.25 3.125 C6.46203097 4.51898452 4.68099658 3.75288551 1.625 3.25 C-2.08197977 2.87128212 -4.0182642 2.68938853 -7.25 4.61328125 C-9.38255844 6.51688426 -9.38255844 6.51688426 -11.2265625 8.55859375 C-11.98066406 9.33396484 -11.98066406 9.33396484 -12.75 10.125 C-13.41 10.125 -14.07 10.125 -14.75 10.125 C-15.08 11.115 -15.41 12.105 -15.75 13.125 C-16.08 12.465 -16.41 11.805 -16.75 11.125 C-13.30384615 5.34038462 -13.30384615 5.34038462 -10.5 4.25 C-9.9225 4.20875 -9.345 4.1675 -8.75 4.125 C-8.75 3.465 -8.75 2.805 -8.75 2.125 C-5.68753253 0.34090198 -3.52920727 -0.10380021 0 0 Z " fill="#232628" transform="translate(883.75,715.875)"/>
<path d="M0 0 C0.66 0.33 1.32 0.66 2 1 C1.30261719 1.69480469 0.60523438 2.38960938 -0.11328125 3.10546875 C-2.10388355 5.09466774 -4.07756553 7.09919545 -6.04296875 9.11328125 C-7.09110033 10.17973223 -8.13927786 11.24613804 -9.1875 12.3125 C-9.98704102 13.13717773 -9.98704102 13.13717773 -10.80273438 13.97851562 C-12.16424956 15.35715678 -13.57840502 16.68339727 -15 18 C-15.66 18 -16.32 18 -17 18 C-17 19.32 -17 20.64 -17 22 C-17.66 21.67 -18.32 21.34 -19 21 C-17.6875 17.5625 -17.6875 17.5625 -16 14 C-15.01 13.67 -14.02 13.34 -13 13 C-13 12.34 -13 11.68 -13 11 C-12.34 11 -11.68 11 -11 11 C-11 10.34 -11 9.68 -11 9 C-10.34 9 -9.68 9 -9 9 C-9 8.34 -9 7.68 -9 7 C-8.01 6.67 -7.02 6.34 -6 6 C-5.67 5.01 -5.34 4.02 -5 3 C-2.5625 1.25 -2.5625 1.25 0 0 Z " fill="#B1B0AE" transform="translate(565,421)"/>
<path d="M0 0 C5.77229197 -0.08546674 11.38659383 0.19801637 17.125 0.8125 C18.28322266 0.91788086 18.28322266 0.91788086 19.46484375 1.02539062 C24.23028927 1.53278474 27.78709133 2.54359159 32 5 C29.44046307 6.27976847 28.62097811 5.80451323 25.875 5.125 C20.43444178 3.93189513 15.08457282 3.61556153 9.53466797 3.43017578 C5.8895024 3.27231077 3.11301137 2.97955595 0 1 C0 0.67 0 0.34 0 0 Z " fill="#4E2021" transform="translate(457,924)"/>
<path d="M0 0 C4.80546679 -0.07405295 9.6106029 -0.12855497 14.41650391 -0.16479492 C16.05197941 -0.17989911 17.68741429 -0.20038389 19.32275391 -0.22631836 C21.67100024 -0.26263145 24.01871205 -0.27970932 26.3671875 -0.29296875 C27.10057343 -0.30845261 27.83395935 -0.32393646 28.58956909 -0.33988953 C30.65185547 -0.34057617 30.65185547 -0.34057617 34 0 C34.66 0.99 35.32 1.98 36 3 C32.19331816 3.06678389 28.67735064 3.10262889 24.90625 2.53125 C19.96181382 1.85880668 15.04490378 1.64524206 10.0625 1.4375 C9.09248047 1.39431641 8.12246094 1.35113281 7.12304688 1.30664062 C4.74881399 1.20137907 2.37449079 1.09924293 0 1 C0 0.67 0 0.34 0 0 Z " fill="#575857" transform="translate(607,408)"/>
<path d="M0 0 C0.33 0.99 0.66 1.98 1 3 C0.67 3.33 0.34 3.66 0 4 C-1.98564086 14.90551191 -2.51887734 25.94683988 -3 37 C-3.33 37 -3.66 37 -4 37 C-4.11712011 32.52105679 -4.1875608 28.04251286 -4.25 23.5625 C-4.28351562 22.30244141 -4.31703125 21.04238281 -4.3515625 19.74414062 C-4.42997596 12.23605175 -3.87786668 6.52176733 0 0 Z " fill="#60605E" transform="translate(542,448)"/>
<path d="M0 0 C0.33 0.66 0.66 1.32 1 2 C0.01 3.485 0.01 3.485 -1 5 C-2.35088568 11.74353416 -2.08955475 17.48550577 0 24 C-1.9375 23.25 -1.9375 23.25 -4 22 C-5.10121046 18.9166107 -5.10525673 15.99951111 -5.0625 12.75 C-5.05347656 11.85796875 -5.04445312 10.9659375 -5.03515625 10.046875 C-5.02355469 9.37140625 -5.01195312 8.6959375 -5 8 C-4.34 8 -3.68 8 -3 8 C-2.87625 7.236875 -2.7525 6.47375 -2.625 5.6875 C-2 3 -2 3 0 0 Z " fill="#154C7D" transform="translate(209,331)"/>
<path d="M0 0 C0.66 0 1.32 0 2 0 C3.57540724 4.72622173 4.19998973 10.33277392 2.10546875 14.98828125 C1 16.625 1 16.625 -1 19 C-1.66 18.67 -2.32 18.34 -3 18 C-2.01 16.515 -2.01 16.515 -1 15 C-0.70008931 12.41114829 -0.49134775 9.90850918 -0.375 7.3125 C-0.33632813 6.61060547 -0.29765625 5.90871094 -0.2578125 5.18554688 C-0.1637666 3.45745345 -0.0808032 1.72876325 0 0 Z " fill="#616162" transform="translate(644,554)"/>
<path d="M0 0 C5.03220379 -0.18590307 9.12087171 0.3658861 13.9375 1.8125 C15.14535156 2.17472656 16.35320313 2.53695312 17.59765625 2.91015625 C21.46090493 4.14763775 25.23419194 5.49367677 29 7 C25.34811918 8.07174763 22.73567172 7.76411467 19 7 C19 6.34 19 5.68 19 5 C17.82244141 4.81824219 17.82244141 4.81824219 16.62109375 4.6328125 C10.94948787 3.72813917 5.47507746 2.7420701 0 1 C0 0.67 0 0.34 0 0 Z " fill="#8F2221" transform="translate(609,108)"/>
<path d="M0 0 C0.33 0.99 0.66 1.98 1 3 C-0.6696109 4.84535941 -2.14024669 6.07993825 -4.31640625 7.3203125 C-7.20846751 9.13048185 -9.36272259 11.1311621 -11.75 13.5625 C-12.91789063 14.74005859 -12.91789063 14.74005859 -14.109375 15.94140625 C-16.04375674 17.85782262 -16.04375674 17.85782262 -17 20 C-17.66 19.67 -18.32 19.34 -19 19 C-14.83951887 14.15020839 -10.68221838 9.35555198 -6 5 C-5.34 5 -4.68 5 -4 5 C-4 4.34 -4 3.68 -4 3 C-3.34 3 -2.68 3 -2 3 C-2 2.34 -2 1.68 -2 1 C-1.34 0.67 -0.68 0.34 0 0 Z " fill="#1B5181" transform="translate(227,208)"/>
<path d="M0 0 C2.1462026 0.14029419 4.29196218 0.28738164 6.4375 0.4375 C7.63246094 0.51871094 8.82742188 0.59992188 10.05859375 0.68359375 C13 1 13 1 14 2 C16.28808802 2.24179404 18.57465815 2.38336599 20.87109375 2.5234375 C23 3 23 3 25 6 C19.58895017 5.60073807 15.03796577 5.06685775 10 3 C7.63105693 2.70541641 5.27248833 2.50148929 2.890625 2.34375 C2.26671875 2.2303125 1.6428125 2.116875 1 2 C0.67 1.34 0.34 0.68 0 0 Z " fill="#5A1413" transform="translate(576,100)"/>
<path d="M0 0 C0.33 0 0.66 0 1 0 C2.01527143 3.99628116 3.0093808 7.99754306 4 12 C4.29777344 13.17175781 4.59554687 14.34351563 4.90234375 15.55078125 C5.18207031 16.68902344 5.46179688 17.82726562 5.75 19 C6.01296875 20.051875 6.2759375 21.10375 6.546875 22.1875 C6.98480623 24.90569385 6.91126044 26.43861932 6 29 C3.46563321 26.46563321 3.72393796 25.38749868 3.5625 21.875 C3.24764881 17.40294706 2.37663949 14.01446298 0.6328125 9.92578125 C-0.46029473 6.59922654 -0.18590571 3.47023993 0 0 Z " fill="#695315" transform="translate(851,417)"/>
<path d="M0 0 C0.66 0.33 1.32 0.66 2 1 C0.1107492 4.67354321 -2.0009958 7.05531047 -5.25 9.59765625 C-8.00997581 11.80933329 -10.57238753 14.24349063 -13.16796875 16.64453125 C-15 18 -15 18 -18 18 C-13.39599394 13.28579167 -8.71464736 8.77861861 -3.6640625 4.54296875 C-1.76915089 2.90611667 -1.76915089 2.90611667 0 0 Z " fill="#4B4D50" transform="translate(764,756)"/>
<path d="M0 0 C0.33 0.66 0.66 1.32 1 2 C1.66 2 2.32 2 3 2 C3 3.65 3 5.3 3 7 C3.66 7 4.32 7 5 7 C5.36463732 8.74784829 5.7163078 10.49840502 6.0625 12.25 C6.25972656 13.22453125 6.45695313 14.1990625 6.66015625 15.203125 C6.98397535 17.868119 6.85503199 19.48871723 6 22 C4.66666667 18 3.33333333 14 2 10 C1.62617187 8.96101563 1.25234375 7.92203125 0.8671875 6.8515625 C0 4 0 4 0 0 Z " fill="#8B6E1F" transform="translate(844,395)"/>
<path d="M0 0 C-1 3 -1 3 -3.125 4.6875 C-6.28249332 7.22722289 -8.73818116 10.01717735 -11.3515625 13.09765625 C-12.83728192 14.81221871 -14.37451089 16.41884241 -16 18 C-16.66 17.67 -17.32 17.34 -18 17 C-17.50628906 16.52949219 -17.01257813 16.05898438 -16.50390625 15.57421875 C-15.54291016 14.64029297 -15.54291016 14.64029297 -14.5625 13.6875 C-13.60537109 12.76517578 -13.60537109 12.76517578 -12.62890625 11.82421875 C-10.7778582 9.99355944 -10.7778582 9.99355944 -10 7 C-8.22265625 5.17578125 -8.22265625 5.17578125 -6.0625 3.3125 C-5.35222656 2.68988281 -4.64195312 2.06726563 -3.91015625 1.42578125 C-2 0 -2 0 0 0 Z " fill="#06141F" transform="translate(279,248)"/>
<path d="M0 0 C5.21127177 0.6023418 9.91266051 1.75560035 14.875 3.4375 C15.88820313 3.76331055 15.88820313 3.76331055 16.921875 4.09570312 C21.87603131 5.75206261 21.87603131 5.75206261 23 8 C20.47717364 7.40336519 17.9569878 6.79794859 15.4375 6.1875 C14.73302734 6.02185547 14.02855469 5.85621094 13.30273438 5.68554688 C8.61587709 4.54083058 4.38673952 3.01178987 0 1 C0 0.67 0 0.34 0 0 Z " fill="#722F2F" transform="translate(380,906)"/>
<path d="M0 0 C-4.25473664 2.8364911 -8.86972287 3.06645089 -13.83984375 3.76757812 C-14.58363281 3.88423828 -15.32742188 4.00089844 -16.09375 4.12109375 C-16.77115234 4.2183374 -17.44855469 4.31558105 -18.14648438 4.41577148 C-20.41343821 5.13031581 -21.37957365 6.30422497 -23 8 C-23.66 8 -24.32 8 -25 8 C-25 6.68 -25 5.36 -25 4 C-23.79601562 3.79503906 -22.59203125 3.59007812 -21.3515625 3.37890625 C-19.77601308 3.10693641 -18.20049379 2.83479193 -16.625 2.5625 C-15.8309375 2.42779297 -15.036875 2.29308594 -14.21875 2.15429688 C-1.61617136 -0.03513416 -1.61617136 -0.03513416 0 0 Z " fill="#404143" transform="translate(603,852)"/>
<path d="M0 0 C0.66 0.33 1.32 0.66 2 1 C1.01 2.485 1.01 2.485 0 4 C-0.66 4 -1.32 4 -2 4 C-3.8390273 11.3561092 -3.61221114 16.40378836 0 23 C-0.33 23.66 -0.66 24.32 -1 25 C-4.45027041 20.64965905 -5.1536897 17.51784144 -5.1875 12 C-5.20167969 10.948125 -5.21585937 9.89625 -5.23046875 8.8125 C-5 6 -5 6 -3 3 C-2.34 3 -1.68 3 -1 3 C-0.67 2.01 -0.34 1.02 0 0 Z " fill="#16436B" transform="translate(405,115)"/>
<path d="M0 0 C7.75 0.75 7.75 0.75 10 3 C13.02277944 4.07428277 16.08001243 4.98027105 19.15234375 5.90234375 C21.87686368 6.95253593 23.17980178 7.77390391 25 10 C18.51292846 8.3186083 12.2322365 6.46937673 6 4 C6 3.34 6 2.68 6 2 C4.02 2 2.04 2 0 2 C0 1.34 0 0.68 0 0 Z " fill="#8A1F1E" transform="translate(640,116)"/>
<path d="M0 0 C0.33 1.65 0.66 3.3 1 5 C0.443125 4.731875 -0.11375 4.46375 -0.6875 4.1875 C-1.8321875 4.0946875 -1.8321875 4.0946875 -3 4 C-5.77122275 6.35426499 -5.77122275 6.35426499 -8 9 C-8.99 8.67 -9.98 8.34 -11 8 C-9.93119777 6.65499045 -8.84437492 5.32428562 -7.75 4 C-7.14671875 3.2575 -6.5434375 2.515 -5.921875 1.75 C-4 0 -4 0 0 0 Z " fill="#585859" transform="translate(412,536)"/>
<path d="M0 0 C1.51839575 3.92655206 0.43537717 6.71821846 -0.8125 10.625 C-1.16957031 11.77226563 -1.52664062 12.91953125 -1.89453125 14.1015625 C-3 17 -3 17 -5 19 C-3.18421053 4.77631579 -3.18421053 4.77631579 0 0 Z " fill="#793435" transform="translate(205,740)"/>
<path d="M0 0 C0.33 0 0.66 0 1 0 C-0.67045455 13.36363636 -0.67045455 13.36363636 -3.625 17 C-4.07875 17.33 -4.5325 17.66 -5 18 C-4.51030705 11.38914524 -2.66557258 6.05022986 0 0 Z " fill="#1B6949" transform="translate(193,668)"/>
<path d="M0 0 C5.00890086 0.61512818 10.00632136 1.2717552 15 2 C15.33 2.99 15.66 3.98 16 5 C10.13190493 4.47606294 5.45126259 3.23891142 0 1 C0 0.67 0 0.34 0 0 Z " fill="#939594" transform="translate(566,611)"/>
<path d="M0 0 C2.54186606 0.31094086 5.08348598 0.62370536 7.625 0.9375 C8.69427734 1.06801758 8.69427734 1.06801758 9.78515625 1.20117188 C13.87591961 1.70782605 17.93842635 2.2889043 22 3 C22 3.33 22 3.66 22 4 C18.89476646 3.91911825 15.79149667 3.8062811 12.6875 3.6875 C11.36588867 3.65366211 11.36588867 3.65366211 10.01757812 3.61914062 C9.17001953 3.58369141 8.32246094 3.54824219 7.44921875 3.51171875 C6.27879028 3.47244263 6.27879028 3.47244263 5.0847168 3.43237305 C2.55078834 2.9068329 1.63072223 1.9591474 0 0 Z " fill="#6C6C6D" transform="translate(583,616)"/>
<path d="M0 0 C2.64 0 5.28 0 8 0 C5.48768622 2.51231378 3.62148234 2.78661713 0.1875 3.625 C-1.36904297 4.01558594 -1.36904297 4.01558594 -2.95703125 4.4140625 C-5.73587837 4.94914218 -8.18176362 5.11460481 -11 5 C-8.09907498 3.06604999 -7.10325263 2.69868059 -3.8125 2.375 C-2.554375 2.25125 -1.29625 2.1275 0 2 C0 1.34 0 0.68 0 0 Z " fill="#737271" transform="translate(593,409)"/>
<path d="M0 0 C0.66 0.33 1.32 0.66 2 1 C1.34 1.66 0.68 2.32 0 3 C0.66 3.66 1.32 4.32 2 5 C0.35 5 -1.3 5 -3 5 C-3 5.66 -3 6.32 -3 7 C-4.65 7 -6.3 7 -8 7 C-6.88424427 3.65273281 -6.48655378 3.37920252 -3.5625 1.75 C-2.386875 1.1725 -1.21125 0.595 0 0 Z " fill="#3A3D3F" transform="translate(612,911)"/>
<path d="M0 0 C1.21816406 0.03480469 1.21816406 0.03480469 2.4609375 0.0703125 C3.68683594 0.09738281 3.68683594 0.09738281 4.9375 0.125 C5.87722656 0.15980469 5.87722656 0.15980469 6.8359375 0.1953125 C6.8359375 0.8553125 6.8359375 1.5153125 6.8359375 2.1953125 C8.4859375 2.5253125 10.1359375 2.8553125 11.8359375 3.1953125 C8.72846056 4.74905097 6.09367223 3.78059878 2.7109375 3.2578125 C1.42960938 3.06316406 0.14828125 2.86851562 -1.171875 2.66796875 C-2.15929687 2.51199219 -3.14671875 2.35601563 -4.1640625 2.1953125 C-2.1640625 0.1953125 -2.1640625 0.1953125 0 0 Z " fill="#3A3D3E" transform="translate(881.1640625,715.8046875)"/>
<path d="M0 0 C0.66 0.33 1.32 0.66 2 1 C-2.30635874 4.12211008 -6.73783128 6.86021852 -12 8 C-14.2421875 7.57421875 -14.2421875 7.57421875 -16 7 C-12.12742211 4.41828141 -8.47158208 3.21952239 -4 2 C-3.236875 1.608125 -2.47375 1.21625 -1.6875 0.8125 C-1.130625 0.544375 -0.57375 0.27625 0 0 Z " fill="#134B33" transform="translate(139,436)"/>
<path d="M0 0 C2.475 0.495 2.475 0.495 5 1 C5 1.66 5 2.32 5 3 C5.7425 2.95875 6.485 2.9175 7.25 2.875 C10.08758952 3.00398134 11.58773938 3.57051222 14 5 C14 5.66 14 6.32 14 7 C14.66 7.33 15.32 7.66 16 8 C14.68 8 13.36 8 12 8 C12 7.34 12 6.68 12 6 C11.236875 5.855625 10.47375 5.71125 9.6875 5.5625 C7 5 7 5 4 4 C4 3.34 4 2.68 4 2 C2.68 1.67 1.36 1.34 0 1 C0 0.67 0 0.34 0 0 Z " fill="#6C1919" transform="translate(690,136)"/>
<path d="M0 0 C0 4.06166652 -1.14053309 7.39776912 -3 11 C-5.1875 12.5 -5.1875 12.5 -7 13 C-6.67 11.68 -6.34 10.36 -6 9 C-5.34 9 -4.68 9 -4 9 C-3.71125 7.88625 -3.4225 6.7725 -3.125 5.625 C-2 2 -2 2 0 0 Z " fill="#2066A1" transform="translate(167,278)"/>
<path d="M0 0 C2.97 0.33 5.94 0.66 9 1 C9 3.64 9 6.28 9 9 C8.34 9 7.68 9 7 9 C6.67 6.69 6.34 4.38 6 2 C4.35 2 2.7 2 1 2 C0.67 1.34 0.34 0.68 0 0 Z " fill="#268D60" transform="translate(191,644)"/>
<path d="M0 0 C6.22937753 -0.25426031 11.14369314 1.04789771 17 3 C17 3.66 17 4.32 17 5 C14.53961507 4.55102465 12.08210379 4.09131167 9.625 3.625 C8.57699219 3.43550781 8.57699219 3.43550781 7.5078125 3.2421875 C2.2265625 2.2265625 2.2265625 2.2265625 0 0 Z " fill="#757575" transform="translate(645,411)"/>
<path d="M0 0 C0.94875 0.165 1.8975 0.33 2.875 0.5 C5.80168901 1.0526635 5.80168901 1.0526635 8 1 C8 2.65 8 4.3 8 6 C4.65750371 5.40312566 2.53563658 4.26396123 0 2 C0 1.34 0 0.68 0 0 Z " fill="#35A275" transform="translate(162,743)"/>
<path d="M0 0 C0.66 0.33 1.32 0.66 2 1 C0.625 2.5 0.625 2.5 -1 4 C-1.66 4 -2.32 4 -3 4 C-3.33 5.32 -3.66 6.64 -4 8 C-5.65 8.33 -7.3 8.66 -9 9 C-9 8.34 -9 7.68 -9 7 C-7.03125 5.2734375 -7.03125 5.2734375 -4.5 3.375 C-3.6646875 2.74335938 -2.829375 2.11171875 -1.96875 1.4609375 C-1.3190625 0.97882813 -0.669375 0.49671875 0 0 Z " fill="#1E5D93" transform="translate(253,185)"/>
<path d="M0 0 C0.33 0 0.66 0 1 0 C1 2.97 1 5.94 1 9 C1.66 9 2.32 9 3 9 C3 11.64 3 14.28 3 17 C0.86313001 12.72626002 -0.11896237 10.23076378 -0.0625 5.375 C-0.05347656 4.37210938 -0.04445313 3.36921875 -0.03515625 2.3359375 C-0.02355469 1.56507813 -0.01195313 0.79421875 0 0 Z " fill="#0F3927" transform="translate(101,578)"/>
<path d="M0 0 C1.76923828 0.04060547 1.76923828 0.04060547 3.57421875 0.08203125 C4.47785156 0.11683594 5.38148438 0.15164063 6.3125 0.1875 C6.6425 0.8475 6.9725 1.5075 7.3125 2.1875 C6.58804688 2.17589844 5.86359375 2.16429687 5.1171875 2.15234375 C0.06466677 2.10518689 -4.72128767 2.11372436 -9.6875 3.1875 C-6.99455929 -0.5165087 -4.35133403 -0.12924755 0 0 Z " fill="#5E4E15" transform="translate(911.6875,575.8125)"/>
<path d="M0 0 C9.59453303 2.89066059 9.59453303 2.89066059 13 6 C9.66666667 5.33333333 6.33333333 4.66666667 3 4 C3 3.34 3 2.68 3 2 C2.01 1.67 1.02 1.34 0 1 C0 0.67 0 0.34 0 0 Z " fill="#532122" transform="translate(368,832)"/>
<path d="M0 0 C1 2 1 2 0.1875 5.4375 C-1 9 -1 9 -3 12 C-2.88541307 10.56163249 -2.75790884 9.12429034 -2.625 7.6875 C-2.55539062 6.88699219 -2.48578125 6.08648437 -2.4140625 5.26171875 C-2 3 -2 3 0 0 Z " fill="#621713" transform="translate(825,260)"/>
<path d="M0 0 C2.875 0.6875 2.875 0.6875 6 2 C7.375 4.625 7.375 4.625 8 7 C5.05043472 5.63055898 2.47531189 4.12169591 0 2 C0 1.34 0 0.68 0 0 Z " fill="#8B3C3D" transform="translate(235,822)"/>
<path d="M0 0 C0.66 0.33 1.32 0.66 2 1 C-0.12121657 3.33333823 -2.01594365 4.9148886 -5 6 C-7.12890625 5.546875 -7.12890625 5.546875 -9 5 C-7.54735962 4.1361871 -6.0876837 3.28419546 -4.625 2.4375 C-3.40683594 1.72400391 -3.40683594 1.72400391 -2.1640625 0.99609375 C-1.44992187 0.66738281 -0.73578125 0.33867188 0 0 Z " fill="#5C5D5F" transform="translate(664,608)"/>
<path d="M0 0 C-1.16290805 3.48872415 -2.13967609 4.09976864 -5.0625 6.1875 C-5.79597656 6.71730469 -6.52945312 7.24710938 -7.28515625 7.79296875 C-7.85105469 8.19128906 -8.41695313 8.58960938 -9 9 C-9.33 8.34 -9.66 7.68 -10 7 C-8.71372289 5.82739389 -7.42080217 4.6620717 -6.125 3.5 C-5.04605469 2.52546875 -5.04605469 2.52546875 -3.9453125 1.53125 C-2 0 -2 0 0 0 Z " fill="#134A75" transform="translate(279,248)"/>
<path d="M0 0 C0.66 0.33 1.32 0.66 2 1 C1.0479279 2.00596297 0.08812654 3.00461563 -0.875 4 C-1.40867187 4.556875 -1.94234375 5.11375 -2.4921875 5.6875 C-4 7 -4 7 -6 7 C-6 6.34 -6 5.68 -6 5 C-5.34 5 -4.68 5 -4 5 C-3.896875 4.360625 -3.79375 3.72125 -3.6875 3.0625 C-3.460625 2.381875 -3.23375 1.70125 -3 1 C-2.01 0.67 -1.02 0.34 0 0 Z " fill="#363738" transform="translate(595,454)"/>
<path d="M0 0 C0.66 0.33 1.32 0.66 2 1 C-0.97 4.96 -0.97 4.96 -4 9 C-4.33 7.68 -4.66 6.36 -5 5 C-2.5625 2.25 -2.5625 2.25 0 0 Z " fill="#4C1210" transform="translate(534,164)"/>
<path d="M0 0 C0 0.33 0 0.66 0 1 C-1.7015625 1.433125 -1.7015625 1.433125 -3.4375 1.875 C-4.613125 2.24625 -5.78875 2.6175 -7 3 C-7.33 3.66 -7.66 4.32 -8 5 C-8.66 5 -9.32 5 -10 5 C-10 3.68 -10 2.36 -10 1 C-6.61981469 -0.04005702 -3.5219721 -0.08004482 0 0 Z " fill="#262729" transform="translate(588,855)"/>
<path d="M0 0 C0.33 0.99 0.66 1.98 1 3 C0.01 3.33 -0.98 3.66 -2 4 C-3.20882096 6.00016466 -3.20882096 6.00016466 -4 8 C-4.99 8 -5.98 8 -7 8 C-4.69 5.36 -2.38 2.72 0 0 Z " fill="#6B6C6E" transform="translate(469,469)"/>
<path d="M0 0 C2.29633824 3.44450737 2.54016485 5.93812283 3 10 C2.01 9.34 1.02 8.68 0 8 C-0.40843923 5.28796348 -0.13336867 2.7562858 0 0 Z " fill="#4E3E11" transform="translate(855,436)"/>
<path d="M0 0 C1.9375 0.8125 1.9375 0.8125 4 2 C4.33 2.99 4.66 3.98 5 5 C3.35 5.33 1.7 5.66 0 6 C-0.33 5.34 -0.66 4.68 -1 4 C-0.34 3.34 0.32 2.68 1 2 C0.67 1.34 0.34 0.68 0 0 Z " fill="#257DBC" transform="translate(439,161)"/>
<path d="M0 0 C0.33 0.66 0.66 1.32 1 2 C2.65 2 4.3 2 6 2 C2.5980513 4.09350689 -0.05272412 4.17942163 -4 4 C-2.68 2.68 -1.36 1.36 0 0 Z " fill="#6B6D70" transform="translate(614,911)"/>
<path d="M0 0 C0.33 0.66 0.66 1.32 1 2 C1.598125 1.649375 2.19625 1.29875 2.8125 0.9375 C5 0 5 0 8 1 C2.375 4 2.375 4 -1 4 C-0.67 2.68 -0.34 1.36 0 0 Z " fill="#705A1D" transform="translate(853,597)"/>
<path d="M0 0 C2.97 0.495 2.97 0.495 6 1 C6 1.66 6 2.32 6 3 C6.99 3 7.98 3 9 3 C9 3.66 9 4.32 9 5 C5.22454612 3.90931332 2.52956528 3.0916909 0 0 Z " fill="#942823" transform="translate(462,138)"/>
<path d="M0 0 C0.66 0.33 1.32 0.66 2 1 C1.2265625 2.175625 1.2265625 2.175625 0.4375 3.375 C-0.036875 4.24125 -0.51125 5.1075 -1 6 C-0.67 6.66 -0.34 7.32 0 8 C-1.32 7.34 -2.64 6.68 -4 6 C-2.84826645 3.53199953 -1.95216435 1.95216435 0 0 Z " fill="#A32E2A" transform="translate(452,123)"/>
</svg>
